<svg xmlns="http://www.w3.org/2000/svg" width="2200" height="970" fill="none"><path fill="#F4ECE0" d="M0 0h2200v970H0z"/><path d="M1265.79 630.866c-65.34 33.104-134.04 41.245-203.04 16.353-74.622-26.927-132.865-91.242-207.999-114.725-32.037-10.005-68.016-9.906-96.888 8.511-31.539 20.109-50.549 60.415-52.297 100.905-1.748 40.491 12.325 80.583 34.448 112.733 60.003 87.271 163.729 118.724 256.904 132.885 128.832 19.584 274.412 2.363 391.172-64.884 31.03-17.876 59.65-42.711 77.96-75.886 23.97-43.436 26.93-99.269-1.94-140.67-14.34-20.565-36.31-34.613-59.5-37.914-27.4-3.914-51.02 11.001-74.19 25.404-21.06 13.108-42.57 26.102-64.63 37.288z" fill="#F4D3A1"/><path d="M706.778 409.77c-8.382 0-15.208-7.614-15.208-16.964 0-9.351 6.826-16.965 15.208-16.965 8.383 0 15.208 7.614 15.208 16.965.013 9.35-6.813 16.964-15.208 16.964zm0-32.107c-7.476 0-13.562 6.788-13.562 15.128s6.086 15.143 13.562 15.143c7.49 0 13.575-6.788 13.575-15.143 0-8.34-6.085-15.128-13.575-15.128zM556.793 153.228c-8.382 0-15.208-7.614-15.208-16.964 0-9.351 6.826-16.965 15.208-16.965 8.382 0 15.208 7.614 15.208 16.965.013 9.35-6.813 16.964-15.208 16.964zm0-32.107c-7.476 0-13.562 6.788-13.562 15.128s6.086 15.143 13.562 15.143c7.489 0 13.575-6.788 13.575-15.143 0-8.34-6.086-15.128-13.575-15.128z" fill="#FFC04D"/><path d="M1477.12 441.864c-8.38 0-15.21-7.614-15.21-16.965 0-9.35 6.83-16.964 15.21-16.964s15.21 7.614 15.21 16.964c0 9.351-6.83 16.965-15.21 16.965zm0-32.093c-7.47 0-13.56 6.788-13.56 15.128s6.09 15.143 13.56 15.143c7.49 0 13.58-6.788 13.58-15.143-.02-8.34-6.1-15.128-13.58-15.128z" fill="#FF4A57"/><path d="M763.796 810.846c0 3.757-2.731 6.803-6.099 6.803-3.368 0-6.098-3.046-6.098-6.803s2.73-6.803 6.098-6.803c3.381.014 6.099 3.046 6.099 6.803z" fill="#0082FF"/><path d="M827.129 891.841c0 3.757-2.731 6.803-6.099 6.803-3.368 0-6.098-3.046-6.098-6.803s2.73-6.803 6.098-6.803 6.099 3.046 6.099 6.803z" stroke="#FF4A57" stroke-miterlimit="10"/><path d="M1184.37 496.088c0 3.473-2.53 6.291-5.64 6.291-3.12 0-5.64-2.818-5.64-6.291 0-3.473 2.52-6.291 5.64-6.291 3.11-.014 5.64 2.804 5.64 6.291zm208.39 383.698c0 3.757-2.73 6.803-6.1 6.803-3.36 0-6.09-3.046-6.09-6.803s2.73-6.803 6.09-6.803c3.37.014 6.1 3.046 6.1 6.803z" fill="#FF4A57"/><path d="M1351.41 374.432c0 3.757-2.73 6.803-6.1 6.803-3.36 0-6.09-3.046-6.09-6.803s2.73-6.803 6.09-6.803c3.37 0 6.1 3.046 6.1 6.803z" fill="#FFC04D"/><path d="M684.642 627.408c0 3.757-2.73 6.803-6.098 6.803s-6.099-3.046-6.099-6.803 2.731-6.803 6.099-6.803c3.368 0 6.098 3.046 6.098 6.803z" fill="#FF4A57"/><path d="M1148.68 567.733c0 1.879-1.36 3.401-3.05 3.401-1.68 0-3.05-1.522-3.05-3.401 0-1.879 1.37-3.401 3.05-3.401 1.7 0 3.05 1.522 3.05 3.401z" fill="#FFC04D"/><path d="M1474.07 550.669c0 1.878-1.36 3.401-3.05 3.401-1.68 0-3.05-1.523-3.05-3.401 0-1.879 1.37-3.402 3.05-3.402 1.69 0 3.05 1.523 3.05 3.402z" fill="#FFC965"/><path d="M929.287 489.783c0 1.879-1.366 3.402-3.05 3.402-1.684 0-3.049-1.523-3.049-3.402 0-1.878 1.365-3.401 3.049-3.401 1.684.014 3.05 1.537 3.05 3.401z" fill="#FF4A57"/><path d="M1477.12 726.919c0 1.878-1.36 3.401-3.05 3.401-1.68 0-3.05-1.523-3.05-3.401 0-1.879 1.37-3.402 3.05-3.402 1.69 0 3.05 1.523 3.05 3.402zm-646.954-302.02c0 1.878-1.365 3.401-3.049 3.401s-3.05-1.523-3.05-3.401c0-1.879 1.366-3.402 3.05-3.402 1.684 0 3.049 1.523 3.049 3.402z" stroke="#00B0AA" stroke-width=".886" stroke-miterlimit="10"/><path d="M768.99 437.11c0 1.879-1.366 3.402-3.05 3.402-1.684 0-3.049-1.523-3.049-3.402 0-1.878 1.365-3.401 3.049-3.401s3.05 1.537 3.05 3.401zM1517 599.072c1.69 0 3.05-1.523 3.05-3.402 0-1.879-1.36-3.401-3.05-3.401-1.68 0-3.04 1.522-3.04 3.401 0 1.879 1.36 3.402 3.04 3.402zm-97.02-259.466c0 1.878-1.37 3.401-3.05 3.401-1.69 0-3.05-1.523-3.05-3.401 0-1.879 1.36-3.402 3.05-3.402 1.68.014 3.05 1.523 3.05 3.402z" fill="#0082FF"/><path d="M1316.63 459.355c-7.63 0-13.84-6.931-13.84-15.442s6.21-15.442 13.84-15.442 13.85 6.931 13.85 15.442-6.22 15.442-13.85 15.442zm0-29.062c-6.72 0-12.21 6.105-12.21 13.62 0 7.5 5.48 13.62 12.21 13.62s12.21-6.105 12.21-13.62c-.01-7.5-5.48-13.62-12.21-13.62zm239.98-249.788c-7.63 0-13.84-6.931-13.84-15.442s6.21-15.442 13.84-15.442 13.84 6.931 13.84 15.442-6.21 15.442-13.84 15.442zm0-29.062c-6.72 0-12.21 6.105-12.21 13.62 0 7.5 5.47 13.62 12.21 13.62 6.72 0 12.21-6.105 12.21-13.62-.01-7.5-5.49-13.62-12.21-13.62zM741.214 657.096c-6.38 0-11.572-5.793-11.572-12.909 0-7.116 5.192-12.908 11.572-12.908 6.379 0 11.571 5.792 11.571 12.908s-5.205 12.909-11.571 12.909zm0-23.981c-5.474 0-9.927 4.967-9.927 11.072 0 6.106 4.453 11.073 9.927 11.073 5.473 0 9.926-4.967 9.926-11.073 0-6.105-4.453-11.072-9.926-11.072z" fill="#00B0AA"/><path d="M1460.05 661.793c-5.09 0-9.24-4.626-9.24-10.304 0-5.679 4.15-10.304 9.24-10.304s9.24 4.625 9.24 10.304c.01 5.678-4.14 10.304-9.24 10.304zm0-18.787c-4.18 0-7.6 3.8-7.6 8.483 0 4.682 3.4 8.482 7.6 8.482 4.19 0 7.6-3.8 7.6-8.482 0-4.683-3.4-8.483-7.6-8.483z" fill="#FFB5D6"/><path d="M1405.89 487.279c-5.09 0-9.24-4.626-9.24-10.305 0-5.678 4.15-10.304 9.24-10.304s9.24 4.626 9.24 10.304c0 5.679-4.15 10.305-9.24 10.305zm0-18.787c-4.18 0-7.6 3.8-7.6 8.482 0 4.683 3.4 8.483 7.6 8.483 4.19 0 7.6-3.8 7.6-8.483 0-4.682-3.41-8.482-7.6-8.482z" fill="#0082FF"/><path d="M1480.67 825.334c-5.09 0-9.24-4.625-9.24-10.304 0-5.678 4.15-10.304 9.24-10.304s9.24 4.626 9.24 10.304c0 5.679-4.15 10.304-9.24 10.304zm0-18.786c-4.19 0-7.61 3.8-7.61 8.482 0 4.668 3.41 8.482 7.61 8.482 4.18 0 7.6-3.799 7.6-8.482-.01-4.668-3.42-8.482-7.6-8.482z" fill="#FFC04D"/><path d="M1024.66 536.977c-6.17 0-11.18-5.593-11.18-12.467 0-6.874 5.01-12.468 11.18-12.468 6.16 0 11.17 5.594 11.17 12.468s-5.01 12.467-11.17 12.467zm0-23.326c-5.38 0-9.74 4.867-9.74 10.859s4.36 10.859 9.74 10.859c5.37 0 9.73-4.867 9.73-10.859s-4.36-10.859-9.73-10.859z" fill="#0082FF"/><path d="M700.31 889.08c-4.593 0-8.319-4.17-8.319-9.28 0-5.123 3.738-9.279 8.319-9.279 4.593 0 8.318 4.17 8.318 9.279 0 5.11-3.725 9.28-8.318 9.28zm0-16.737c-3.687 0-6.686 3.344-6.686 7.457 0 4.113 2.999 7.458 6.686 7.458s6.685-3.345 6.685-7.458c0-4.113-2.998-7.457-6.685-7.457z" fill="#FFB5D6"/><path d="M784.362 583.289l12.861 36.448 44.935-23.269-10.156-34.713-47.64 21.534z" fill="#FF8292"/><path d="M836.89 578.463l-44.412 27.824-2.96-8.411 31.985-18.687 15.387-.726z" fill="#181357"/><path d="M793.919 617.147c.306-.569 51.149-29.048 51.149-29.048l1.071 7.002-50.421 30.172-1.799-8.126z" fill="#000"/><path d="M935.908 728.243l-6.38-31.14 33.53-.214-.358 24.949-26.792 6.405z" fill="#FF8292"/><path d="M956.181 720.188c-.064.014-.319-1.096-.332-1.167-.166-.797-.23-1.651-.038-2.448.255-1.025.893-1.523 1.71-1.95a15.103 15.103 0 002.973-2.064c1.084-.939 1.952-2.092 2.922-3.159.548-.598.727.085.727.669.013 1.451.025 2.889.051 4.34 0 .314.191 3.587.038 3.63.013.014-8.038 2.149-8.051 2.149z" fill="#008B86"/><path d="M930.205 747.868l1.85-24.365s.166-4.811 2.424-5.124c2.258-.327 4.134 4.996 4.134 4.996s.128 1.323 2.45.754c2.322-.555 23.182-6.091 23.182-6.091s8.88 6.333 22.569 7.756c13.906 1.438 15.136 6.533 15.136 6.533l-1.17 6.931-70.575 8.61z" fill="#444FE4"/><path d="M931.175 723.788s2.399-1.978 3.521.541c1.047 2.362.23 3.7 3.969 3.06.816-.143 1.416.427 1.697 1.252.14.427.191.897.229 1.352.013.299.026.612-.038.897-.242 1.053-1.48 1.167-2.284 1.266a24.688 24.688 0 00-4.07.84c-.689.199-1.365.427-2.029.683-.651.256-1.365.74-2.029.854-.064-.512.09-1.167.141-1.679.102-.968.191-1.922.293-2.889.192-1.836.37-3.672.562-5.494-.013-.214.012-.441.038-.683z" fill="#FF4A57"/><path d="M929.554 739.885c.345-.214 10.577-1.68 10.577-1.68s2.284-.356 3.432 2.619c1.161 2.96 1.965 6.148 1.965 6.148l-16.459 2.135.485-9.222z" fill="#FFBA15" stroke="#000" stroke-width=".332" stroke-miterlimit="10"/><path d="M968.314 744.296s-1.799-8.14 5.231-10.218c7.029-2.078 7.259-6.433 10.946-9.707.37-.327 14.507 2.463 14.8 2.448.294-.014 5.899 3.245 5.979 4.014.11.768-.58 7.699-.58 7.699l-10.183 3.573-26.193 2.191z" fill="#FFBA15"/><path d="M962.701 716.829s-4.823 6.162-1.2 8.354c3.624 2.192 9.403 4.995 13.257 5.195 3.853.199 5.486-7.373 5.486-7.373l-17.543-6.176z" fill="#fff" stroke="#000" stroke-width=".32" stroke-miterlimit="10"/><path d="M966.758 717.469c-.447-.356-1.072-.242-1.391.256l-2.667 4.113c-.319.498-.217 1.196.23 1.551.447.356 1.072.242 1.391-.256l2.667-4.113c.306-.484.216-1.181-.23-1.551zm3.981.811c-.447-.355-1.072-.242-1.391.256l-3.139 4.839c-.319.499-.217 1.196.23 1.552.446.356 1.072.242 1.391-.256l3.138-4.839c.319-.499.217-1.196-.229-1.552zm3.42 1.708c-.447-.355-1.072-.242-1.391.256l-3.139 4.839c-.319.499-.217 1.196.23 1.552.446.355 1.071.242 1.39-.256l3.139-4.839a1.206 1.206 0 00-.229-1.552zm3.762 1.181c-.446-.355-1.071-.241-1.39.257l-3.139 4.839c-.319.498-.217 1.195.229 1.551.447.356 1.072.242 1.391-.256l3.139-4.839c.319-.498.217-1.196-.23-1.552zm-24.509 18.588c-.115-.314-.217-.655-.127-.983.242-.91 1.288-.227 1.684.129a47.51 47.51 0 015.052 5.237l5.588-.683-14.927-10.432a4.362 4.362 0 00-3.56-.683l-18.181 4.497.141 1.708 15.348-2.804c1.799-.327 3.611.555 4.606 2.263l4.083 6.988 2.947-.356c-1.046-1.537-2.016-3.117-2.654-4.881z" fill="#000"/><path d="M971.338 745.236s-1.799-8.141 5.231-10.218c7.03-2.078 7.821-5.565 10.22-9.935" stroke="#fff" stroke-width=".332" stroke-miterlimit="10"/><path d="M931.634 728.784l.408-6.718m0 .285a4.124 4.124 0 00-2.386-3.017c-1.174-.498-3.496-.527-3.496 1.437 0 .698.383 1.366.893 1.765 1.315 1.039 4.607-.27 4.76 2.32" stroke="#000" stroke-width=".665" stroke-miterlimit="10" stroke-linecap="round" stroke-linejoin="round"/><path d="M999.164 739.358l-71.001 8.667-1.837 7.344c-.395 1.594.829 3.103 2.297 2.818l70.886-13.791s1.201-.683 1.481-2.234c.38-2.078.92-4.384 1.36-6.675.14-.755.3-2.149-.77-3.914-.37-.612-1.43-.128-2.212.356-1.441.911-.957 3.017.662 3.117.03 0 .08.042.14.099 1.23 1.139.65 4.014-1.006 4.213z" fill="#fff" stroke="#000" stroke-width=".332" stroke-miterlimit="10"/><path d="M839.211 655.161l54.313-15.229s11.406-5.764 15.451 13.222c4.044 18.985 5.601 52.317 5.601 52.317l52.156-2.334c-1.097-33.744-5.805-69.239-16.662-100.82-3.305-9.607-6.494-18.331-15.923-21.889-5.205-1.964-10.845-2.064-16.331-1.609-13.141 1.096-25.861 3.829-38.887 5.921-15.107 2.434-30.595 5.195-44.961 11.13l-28.197 38.44 33.44 20.851z" fill="#000"/><path d="M689.554 679.583l27.176 10.076-17.211 32.08-18.959-13.265 8.994-28.891z" fill="#FF8292"/><path d="M685.217 703.095c.012-.057 1.008.27 1.071.284.689.256 1.391.626 1.889 1.238.651.769.702 1.637.6 2.648a18.951 18.951 0 00.038 3.899c.166 1.523.6 2.946.906 4.426.178.84-.447.655-.893.356-1.11-.74-2.233-1.466-3.343-2.206-.243-.156-2.859-1.679-2.808-1.85-.012.014 2.54-8.781 2.54-8.795z" fill="#008B86"/><path d="M677.473 663.97l17.708 14.388s3.598 2.648 2.667 4.967c-.931 2.32-5.971 1.352-5.971 1.352s-1.072-.555-1.85 1.936c-.778 2.505-7.362 25.276-7.362 25.276s-9.454 5.181-17.645 17.506c-8.305 12.51-12.847 11.044-12.847 11.044l-4.708-4.697 30.008-71.772z" fill="#444FE4"/><path d="M695.425 677.377s.267 3.302-2.246 3.074c-2.361-.228-2.96-1.693-4.402 2.192-.319.854-1.072 1.124-1.85.968-.409-.086-.792-.271-1.149-.484-.242-.143-.472-.285-.663-.498-.677-.783-.128-2.007.204-2.833a33.247 33.247 0 001.467-4.326c.204-.754.37-1.523.523-2.291.141-.741.141-1.694.409-2.377.421.199.842.683 1.212 1.01.689.598 1.378 1.182 2.067 1.779a911.119 911.119 0 013.93 3.387c.166.129.332.271.498.399z" fill="#FF4A57"/><path d="M683.915 667.5c-.013.441-4.198 10.958-4.198 10.958s-.919 2.349-3.789 1.922c-2.871-.441-5.741-1.31-5.741-1.31l6.902-16.808 6.826 5.238z" fill="#FFBA15" stroke="#000" stroke-width=".332" stroke-miterlimit="10"/><path d="M660.452 702.169s7.171 2.505 5.116 10.29c-2.054 7.785 1.174 10.262 1.774 15.485.064.526-9.416 12.553-9.556 12.837-.141.285-5.55 3.928-6.175 3.629-.638-.299-5.601-4.554-5.601-4.554l2.539-11.571 11.903-26.116z" fill="#FFBA15"/><path d="M684.412 711.064s-2.22-7.799-5.779-5.479c-3.56 2.32-8.702 6.376-10.858 9.962-2.156 3.573 2.807 9.052 2.807 9.052l13.83-13.535z" fill="#fff" stroke="#000" stroke-width=".32" stroke-miterlimit="10"/><path d="M681.811 714.594c.498-.242.74-.896.523-1.452l-1.773-4.668c-.217-.569-.804-.825-1.302-.583-.51.242-.74.896-.523 1.451l1.773 4.669c.217.555.804.825 1.302.583zm-2.679 3.386c.51-.242.74-.897.523-1.452l-2.093-5.493c-.216-.569-.803-.826-1.301-.584-.51.242-.74.897-.523 1.452l2.092 5.494c.205.555.792.825 1.302.583zm-3.088 2.363c.51-.242.74-.896.523-1.451l-2.092-5.494c-.217-.569-.804-.825-1.302-.583-.51.242-.74.896-.523 1.451l2.093 5.494c.216.569.803.825 1.301.583zm-2.846 2.989c.511-.242.74-.896.523-1.452l-2.092-5.493c-.217-.569-.804-.826-1.302-.584-.51.242-.74.897-.523 1.452l2.093 5.494c.204.555.791.825 1.301.583zm-1.544-33.018c.293.057.612.142.816.384.574.697-.485 1.352-.969 1.551a40.81 40.81 0 01-6.635 2.107l-2.373 5.678 15.744-8.824c1.11-.626 1.965-1.722 2.373-3.031l5.984-19.669-1.378-.74-5.805 16.097c-.676 1.892-2.297 3.159-4.134 3.216l-7.476.27-1.251 3.003c1.697-.242 3.42-.355 5.104-.042z" fill="#000"/><path d="M658.155 704.575s7.171 2.505 5.117 10.29c-2.042 7.785.217 10.361 2.322 14.901" stroke="#fff" stroke-width=".332" stroke-miterlimit="10"/><path d="M691.354 675.241l4.938 3.871m-.205-.141c1.2.484 2.552.142 3.548-.712.995-.854 2.22-3.046.701-4.085-.536-.37-1.237-.341-1.824-.071-1.468.726-2.182 4.526-4.249 3.345" stroke="#000" stroke-width=".665" stroke-miterlimit="10" stroke-linecap="round" stroke-linejoin="round"/><path d="M648.23 734.163l30.174-72.214-4.683-5.565c-1.02-1.209-2.807-.825-3.355.726l-26.168 74.747s-.089 1.509.944 2.576c1.404 1.438 2.884 3.16 4.415 4.754.51.526 1.493 1.395 3.406 1.281.664-.043.842-1.295.868-2.292.051-1.85-1.812-2.476-2.73-.982-.013.029-.077.057-.154.086-1.505.612-3.419-1.438-2.717-3.117z" fill="#fff" stroke="#000" stroke-width=".332" stroke-miterlimit="10"/><path d="M795.717 625.259l-16.484 59.704s-1.492 13.862-18.155 7.884c-16.65-5.992-43.009-21.775-43.009-21.775l-25.261 50.965c26.435 16.453 56.073 30.372 85.915 36.392 9.071 1.836 17.415 3.302 25.032-3.843 4.211-3.956 7.196-9.279 9.697-14.744 5.983-13.108 10.474-26.643 15.629-40.163 5.958-15.67 11.878-31.88 14.774-48.646l-14.813-46.838-33.325 21.064z" fill="#000"/><path d="M962.93 703.55l-30.659 6.931-1.173-5.75 31.832-1.181zm-268.4 14.702l9.569-33.275 5.971 2.22-15.54 31.055z" fill="#181357"/><path d="M845.693 592.126l-49.975 33.133m-61.725 46.482l-29.077 77.152m205.36-58.422l60.399-10.105m-162.951-61.497c-.523-4.839 6.073 24.493-10.143 23.568m45.981 11.5l-14.761-50.553m-106.342 98.942c.408.142.804.285 1.212.441" stroke="#FFFBFF" stroke-width=".332" stroke-miterlimit="10"/><path d="M726.134 703.635c13.345 4.796 26.716 9.536 40.036 14.417 3.904 1.438 8.42 2.918 12.439 1.281 6.724-2.732 8.217-11.741 10.513-18.274 5.512-15.698 10.169-39.423 12.937-56.701" stroke="#FFFBFF" stroke-width=".332" stroke-miterlimit="10" stroke-dasharray="2.02 2.02"/><path d="M802.276 642.949c.077-.47.141-.939.217-1.394m31.233-41.388c.191.427 5.933 21.221 7.107 25.49a4.23 4.23 0 01.127 1.552c-.127 1.266-.791 2.376-1.786 2.974l-2.156 1.309m2.844 6.932c.409-.142.804-.285 1.212-.427" stroke="#FFFBFF" stroke-width=".332" stroke-miterlimit="10"/><path d="M843.537 637.143c14.749-5.138 29.498-10.276 44.234-15.413 6.519-2.278 12.911-5.992 19.826-6.519 9.186-.697 12.988 8.212 15.043 16.88 4.031 17.007 6.647 34.498 7.706 52.089" stroke="#FFFBFF" stroke-width=".332" stroke-miterlimit="10" stroke-dasharray="2.02 2.02"/><path d="M930.447 685.603l.077 1.423" stroke="#FFFBFF" stroke-width=".332" stroke-miterlimit="10"/><path d="M776.924 538.301s17.339 5.465 16.892 18.815c-.217 6.39-10.679 20.665-17.492 25.603 0 0-53.33 34.869-75.121.57-2.897-4.555-4.798-9.792-5.729-15.271-1.365-8.099-3.585-24.28-1.786-35.325l30.977-2.134s-6.481 38.953 24.42 25.973a32.459 32.459 0 005.716-3.117l22.123-15.114zm-75.811-14.588c.307-5.906.753-11.813 1.315-17.691.395-4.184.854-8.354 1.48-12.51.536-3.558.957-8.212 2.756-11.286 1.365-2.348 3.241-2.22 4.083.1 1.327 3.629.97 8.269.804 12.083-.039.925-.09 1.836-.141 2.747" fill="#FF8292"/><path d="M707.734 519.458c.294-5.565.702-11.13 1.213-16.681.408-4.483.893-8.966 1.556-13.406.523-3.516.995-7.557 2.425-10.788.931-2.106 3.087-3.387 4.223-1.068 1.455 2.975 1.161 7.316 1.097 10.546a121.065 121.065 0 01-.217 4.839" fill="#FF8292"/><path d="M715.951 498.308c.37-.668.408-1.594.523-2.362.357-2.277.932-5.052 1.251-7.33.293-2.106.752-3.6 1.607-5.507.638-1.438 1.927-4.398 3.662-2.89 1.735 1.509 1.518 5.821 1.531 7.942.025 2.974-.345 5.921-.345 8.881l-.025 10.503s7.68-9.962 7.974-5.067c.217 3.544-1.927 9.294-3.419 12.852a52.281 52.281 0 00-3.088 9.948c-.293 1.48-.625 3.217-.97 5.252l-30.977 2.135c.319-6.234.804-12.482 1.403-18.687.37-3.8.804-7.6 1.365-11.357.523-3.487.957-7.728 2.488-10.859 1.034-2.121 3.101-3.345 4.211-.925 1.429 3.102 1.122 7.471 1.046 10.816a131.886 131.886 0 01-.204 4.469c.012-.228 1.569-1.011 1.748-1.124 1.326-.869 2.666-1.723 3.993-2.591 1.378-.882 2.756-1.779 4.134-2.661.561-.37 1.352-.541 1.837-1.053.102-.128.191-.256.255-.385z" fill="#FF8292"/><path d="M703.908 493.512l-.523 10.674m7.935-19.811l-.881 17.577m7.923-16.723l-1.48 15.185" stroke="#000" stroke-width=".332" stroke-miterlimit="10"/><path d="M722.585 508.384s-9.811 1.438-11.24 11.514z" fill="#FF8292"/><path d="M722.585 508.384s-9.811 1.438-11.24 11.514" stroke="#000" stroke-width=".332" stroke-miterlimit="10"/><path d="M818.453 565.143s-13.333-24.109-9.441-36.733c1.939-6.305 2.615-3.259 10.053-7.671 0 0 53.331-34.869 75.122-.57 2.896 4.555 4.797 9.792 5.729 15.271 1.365 8.098 3.585 24.28 1.786 35.324l-30.978 2.135s6.482-38.953-24.419-25.973a32.448 32.448 0 00-5.716 3.116l-22.136 15.101zm75.812 14.588a409.214 409.214 0 01-1.314 17.691c-.396 4.184-.855 8.354-1.48 12.51-.536 3.558-.957 8.211-2.756 11.286-1.366 2.348-3.241 2.22-4.084-.1-1.327-3.629-.969-8.269-.803-12.083.038-.925.089-1.836.14-2.747" fill="#FF8292"/><path d="M887.643 583.986a428.8 428.8 0 01-1.213 16.68c-.408 4.483-.893 8.966-1.556 13.407-.523 3.515-.995 7.557-2.425 10.788-.931 2.106-3.087 3.387-4.223 1.067-1.455-2.975-1.161-7.315-1.097-10.546.038-1.623.114-3.231.217-4.839" fill="#FF8292"/><path d="M879.425 605.135c-.37.669-.408 1.594-.523 2.363-.357 2.277-.931 5.052-1.25 7.329-.293 2.107-.753 3.601-1.608 5.508-.638 1.438-1.926 4.398-3.661 2.889-1.735-1.508-1.519-5.821-1.531-7.941-.026-2.975.344-5.921.344-8.881l.026-10.503s-7.681 9.962-7.974 5.066c-.217-3.544 1.926-9.293 3.419-12.851a52.288 52.288 0 003.087-9.949c.294-1.48.626-3.216.97-5.251l30.978-2.135a414.81 414.81 0 01-1.404 18.687c-.37 3.8-.804 7.6-1.365 11.357-.523 3.487-.957 7.728-2.488 10.859-1.033 2.121-3.1 3.344-4.21.925-1.429-3.103-1.123-7.472-1.046-10.816.038-1.495.115-2.989.204-4.469-.013.227-1.569 1.01-1.748 1.124-1.327.868-2.667 1.722-3.993 2.59-1.378.883-2.756 1.779-4.134 2.662-.562.37-1.353.541-1.837 1.053a1.96 1.96 0 00-.256.384z" fill="#FF8292"/><path d="M891.469 609.931l.536-10.688m-7.936 19.824l.868-17.576m-7.923 16.723l1.48-15.185" stroke="#000" stroke-width=".332" stroke-miterlimit="10"/><path d="M786.149 528.167c3.024-.37 5.027-1.252 5.027-1.252l-5.244-26.344-2.973-8.197s-5.562 3.472-6.608 14.402c-.804 8.397-8.676 13.194-8.676 13.194.727.967 1.48 1.821 2.245 2.59 1.672-.854 5.18-3.032 6.596-6.846 0 0-1.084 6.319-3.942 9.109 2.386 1.708 4.823 2.647 7.119 3.102.587-1.209 1.812-4.084 1.812-4.084l-.051 4.355a19.41 19.41 0 003.611.057c.204-1.338.395-2.733.395-2.733l.689 2.647z" fill="#444FE4"/><path d="M765.862 516.397l-.038-.526c.09-.015 9.135-.911 10.985-12.083l.472.099c-1.913 11.571-11.329 12.496-11.419 12.51z" fill="#444FE4"/><path d="M807.264 552.02c13.154-9.165 6.316-27.368 5.92-28.749-6.672 2.534-9.352 3.089-9.352 3.089l-2.998-10.162-6.111 2.249-8.357-3.715 4.976 15.556s-6.711 3.33-15.208 8.354c1.416 12.524 21.511 20.081 31.13 13.378z" fill="#FF8292"/><path d="M801.688 519.116c-1.582 2.32-3.725 3.857-6.188 4.184-2.411.327-4.146-2.22-6.149-3.971 0 0 2.845 10.717 14.48 7.045l-2.143-7.258z" fill="#181357"/><path d="M785.587 512.782c3.394 9.152 8.14 12.823 13.933 11.443 5.792-1.366 8.331-5.65 4.376-23.583-1.876-8.496-6.162-8.866-11.955-7.5-5.805 1.366-9.352 11.556-6.354 19.64z" fill="#FF8292"/><path d="M782.665 512.896c.804 1.936 2.437 3.003 3.65 2.391 1.199-.626 1.518-2.704.714-4.639-.804-1.936-2.437-3.003-3.649-2.391-1.212.626-1.531 2.704-.715 4.639z" fill="#FF8292"/><path d="M797.949 513.21s1.276.284 1.659-.812c.383-1.081-1.467-2.974-1.467-2.974" stroke="#000" stroke-width=".373" stroke-miterlimit="10"/><path d="M797.976 516.113s-2.272.085-4.428-.982c-.013.014.766 8.155 4.428.982z" fill="#000"/><path d="M791.686 508.269s1.556-2.361 3.649-.526m4.082-.825s1.391-2.49 3.598-.825" stroke="#000" stroke-width=".373" stroke-miterlimit="10" stroke-linecap="round"/><path d="M786.199 513.295s-.166-3.786-2.335-3.203" stroke="#000" stroke-width=".373" stroke-miterlimit="10"/><path d="M792.707 505.239l-1.365.669c-.192.099-.421 0-.511-.228a.446.446 0 01.205-.569l1.365-.669c.191-.099.421 0 .51.228.09.213 0 .469-.204.569zm9.364-2.746l-1.48-.185c-.217-.029-.408.142-.421.384-.026.242.127.455.344.469l1.48.185c.217.029.409-.142.421-.384.026-.227-.127-.441-.344-.469z" fill="#000"/><path d="M783.928 508.043s.753.1.945.157c.548.156 2.335 1.466 2.985 3.785l-.612-9.364-3.726.711-.115 4.853" fill="#444FE4"/><path d="M799.775 496.131c1.658 1.252 2.296 3.501 2.296 3.501l3.483-1.267s-2.781-8.767-10.156-9.663c-7.374-.897-12.426 3.686-12.426 3.686l.229 14.118 8.102-2.96c-.102-1.423-.255-3.017-.255-3.017l1.378 2.618 8.242-3.003c.025-1.708-.893-4.013-.893-4.013z" fill="#444FE4"/><path d="M806.55 497.981c-2.845-6.248-7.311-9.151-13.639-8.853l-.025-.526c6.532-.299 11.138 2.69 14.085 9.151l-.421.228z" fill="#444FE4"/><path d="M779.705 579.801l8.076 23.811s12.057-14.56 30.467-18.402c2.514-.527 4.989-1.253 7.426-2.121 5.001-1.779 12.414-4.697 15.642-7.315l-8.153-18.986s3.394-9.763.957-12.951c-2.424-3.188-20.949-20.566-20.949-20.566l-2.922 1.082c.599-.228 2.552 9.891 2.615 10.617.689 7.458-2.615 13.137-9.454 12.952-5.448-.143-10.895-4.156-13.766-8.867-1.301-2.135-2.22-3.885-3.279-6.177l-4.784 2.434c.012-.014 12.86 30.357-1.876 44.489z" fill="#fff" stroke="#000" stroke-width=".332" stroke-miterlimit="10"/><path d="M786.621 572.444c-4.019-.484-6.928-4.526-6.494-9.009.434-4.483 4.057-7.728 8.076-7.244s6.928 4.526 6.494 9.009c-.434 4.483-4.057 7.742-8.076 7.244zm1.544-15.783c-3.79-.456-7.196 2.604-7.617 6.817-.408 4.227 2.335 8.027 6.111 8.496 3.789.456 7.196-2.604 7.617-6.817.408-4.227-2.335-8.027-6.111-8.496z" fill="#444FE4"/><path d="M814.077 579.233c-4.019-.484-6.928-4.526-6.494-9.009.434-4.484 4.057-7.728 8.076-7.245 4.019.484 6.928 4.526 6.494 9.009-.434 4.483-4.057 7.728-8.076 7.245zm1.544-15.784c-3.79-.455-7.196 2.605-7.617 6.817-.408 4.227 2.335 8.027 6.111 8.497 3.789.455 7.196-2.605 7.617-6.817.408-4.227-2.335-8.041-6.111-8.497z" fill="#008B86"/><path d="M830.344 573.767c-2.067-.256-3.56-2.334-3.343-4.639.23-2.306 2.093-3.971 4.16-3.729 2.067.256 3.56 2.334 3.343 4.64-.23 2.305-2.092 3.985-4.16 3.728zm.779-7.898c-1.838-.228-3.484 1.266-3.688 3.301-.204 2.036 1.136 3.886 2.96 4.113 1.838.228 3.484-1.266 3.688-3.301.204-2.036-1.136-3.886-2.96-4.113zm-25.874 29.346c-2.067-.256-3.56-2.334-3.343-4.64.229-2.305 2.092-3.97 4.159-3.728 2.067.256 3.56 2.334 3.343 4.639-.229 2.306-2.092 3.985-4.159 3.729zm.765-7.884c-1.837-.228-3.483 1.266-3.687 3.301-.204 2.05 1.135 3.886 2.96 4.113 1.837.228 3.483-1.266 3.688-3.301.204-2.05-1.123-3.9-2.961-4.113z" fill="#444FE4"/><path d="M790.602 584.243c-1.671-.2-2.87-1.879-2.692-3.729.179-1.851 1.684-3.203 3.343-3.003 1.672.199 2.871 1.878 2.693 3.729-.179 1.864-1.685 3.202-3.344 3.003zm.613-6.263c-1.429-.17-2.731.982-2.884 2.576-.153 1.594.881 3.046 2.31 3.217 1.429.171 2.73-.982 2.883-2.576.154-1.608-.88-3.046-2.309-3.217zm30.019-19.483c-1.671-.2-2.871-1.879-2.692-3.729.179-1.865 1.684-3.202 3.343-3.003 1.672.199 2.871 1.878 2.692 3.729-.178 1.864-1.684 3.202-3.343 3.003zm.613-6.263c-1.429-.17-2.731.982-2.884 2.576-.153 1.594.881 3.046 2.31 3.217 1.429.171 2.73-.982 2.883-2.576.153-1.608-.88-3.046-2.309-3.217z" fill="#FFBA15"/><path d="M801.944 561.471c-2.067-.256-3.56-2.334-3.343-4.64.23-2.305 2.093-3.97 4.16-3.729 2.067.257 3.56 2.335 3.343 4.64-.23 2.306-2.093 3.985-4.16 3.729zm.766-7.885c-1.838-.227-3.484 1.267-3.688 3.302-.204 2.035 1.136 3.886 2.96 4.113 1.838.228 3.484-1.266 3.688-3.302.204-2.049-1.123-3.899-2.96-4.113z" fill="#FF4A57"/><path d="M789.34 545.744c-2.068-.256-3.56-2.334-3.343-4.639.229-2.306 2.092-3.971 4.159-3.729 2.067.256 3.56 2.334 3.343 4.64-.229 2.305-2.092 3.985-4.159 3.728zm.778-7.884c-1.837-.228-3.483 1.266-3.688 3.302-.204 2.049 1.136 3.885 2.961 4.113 1.837.227 3.483-1.267 3.687-3.302.204-2.05-1.135-3.9-2.96-4.113z" fill="#008B86"/><path d="M810.16 533.205c-2.067-.256-3.56-2.334-3.343-4.639.23-2.306 2.092-3.971 4.159-3.729 2.068.256 3.56 2.334 3.344 4.639-.23 2.306-2.093 3.971-4.16 3.729zm.765-7.899c-1.837-.227-3.483 1.267-3.687 3.302-.204 2.05 1.136 3.886 2.96 4.113 1.838.228 3.484-1.266 3.688-3.301.204-2.05-1.123-3.886-2.961-4.114z" fill="#FFBA15"/><path d="M825.789 547.082c-4.019-.484-6.928-4.526-6.494-9.009.434-4.483 4.057-7.728 8.076-7.244s6.928 4.526 6.494 9.009c-.434 4.483-4.057 7.728-8.076 7.244zm1.544-15.783c-3.79-.456-7.196 2.604-7.617 6.817-.408 4.227 2.335 8.027 6.111 8.496 3.789.456 7.196-2.604 7.617-6.817.421-4.227-2.322-8.041-6.111-8.496zm-41.452 73.31c-4.019-.484-6.928-4.526-6.494-9.009.433-4.484 4.057-7.728 8.076-7.245 4.019.484 6.928 4.526 6.494 9.009-.434 4.483-4.057 7.743-8.076 7.245zm1.531-15.784c-3.79-.455-7.196 2.605-7.617 6.817-.408 4.227 2.335 8.027 6.111 8.497 3.789.455 7.196-2.605 7.617-6.817.421-4.227-2.322-8.027-6.111-8.497z" fill="#FF4A57"/><path d="M1403.29 631.749c-.29-.584-50.28-30.884-50.28-30.884l-1.28 6.96 49.53 31.965 2.03-8.041zm-55.88 163.641l-16.37-26.202-22.7 27.511 16.79 16.495 22.28-17.804z" fill="#C14917"/><path d="M1336.72 778.269l-20.78 25.902-3.12-2.918 23.9-22.984z" fill="#181357"/><path d="M1329.8 808.597c-.42-.669-2.86-4.27-3.51-4.64-.85-.469-1.61-.284-2.45.1-1.07.498-2.22.854-3.37 1.067-1.35.256-2.7.2-4.07.285-.77.057-.43.655-.05 1.053.95.982 1.9 1.964 2.85 2.96.2.214 2.26 2.576 2.38 2.477.02.028 8.26-3.231 8.22-3.302z" fill="#FFBA15"/><path d="M1364.27 803.871l-17.4-14.858c-3.21-3.017-5.98-1.993-6.95 2.533-1.05 4.925-2.26 10.148-5.62 13.549-4.1 4.17-11.05 1.21-12.86 7.629-1.92 6.874-4.9 17.007-7.35 23.668-5.16 14.004-6.57 18.701-6.57 18.701l3.56 1.252 11.12-4.796 42.07-47.678z" fill="#000"/><path d="M1319.25 815.997c.24-.768.5-1.537.74-2.305.11-.356.24-.74.47-1.011.41-.484 1.06-.583 1.65-.526 1.26.142 2.45.996 3.09 2.22.63 1.224.71 2.803.19 4.099-.6 1.508-1.9 2.533-2.72 3.913-1.01 1.708-1.23 3.843-1.4 5.878-.18 2.035-.39 4.17-1.37 5.892-1.67 2.932-3.92 2.932-6.4 1.623 2.22-6.462 3.66-13.293 5.75-19.783z" fill="#fff" stroke="#000" stroke-width=".288" stroke-miterlimit="10"/><path d="M1317.31 815.741c.03-.484.41-.854.84-.825l3.63.27c.43.028.76.455.74.939-.03.484-.41.853-.85.825l-3.62-.27c-.43-.029-.77-.456-.74-.939zm-1.58 3.145c.02-.484.41-.854.84-.825l4.28.327c.43.028.76.455.74.939-.03.483-.41.853-.85.825l-4.27-.327c-.44-.029-.78-.456-.74-.939zm-.81 3.217c.03-.484.41-.854.85-.826l4.27.328c.43.028.77.455.74.939-.02.483-.41.853-.84.825l-4.28-.328c-.43-.028-.76-.455-.74-.938zm-1.26 3.188c.03-.484.41-.854.84-.826l4.28.328c.43.028.76.455.74.939-.03.483-.41.853-.84.825l-4.28-.328c-.45-.028-.78-.455-.74-.938zm-.8 3.159c.02-.484.41-.854.84-.825l4.27.327c.44.028.77.455.74.939-.02.483-.4.853-.84.825l-4.27-.327c-.44-.029-.77-.456-.74-.939zm-.79 3.16c.02-.484.4-.854.84-.825l4.27.327c.44.028.77.455.74.939-.02.484-.41.853-.84.825l-4.27-.327c-.44-.014-.77-.441-.74-.939z" fill="#000"/><path d="M1351.07 796.187c-.96 1.679-2.22 3.102-3.22 4.767-1.16 1.95-1.91 4.242-1.86 6.576.05 2.334.98 4.696 2.67 6.077 3.95-3.316 7.91-6.618 11.86-9.934.98-.826 2.06-1.793 2.22-3.16.12-.967-.25-1.921-.74-2.746-1.54-2.619-4.09-4.142-6.54-5.508-.92-.513-2.2-1.509-3-.328-.33.484-.28 1.523-.46 2.107-.22.768-.59 1.437-.93 2.149z" fill="#FFBA15"/><path d="M1335.52 821.292c-2.06 3.501-2.44 8.126-1 11.983.08.214.18.456.37.555.37.214.78-.156 1.06-.498a57.491 57.491 0 004.69-6.76c1.28-2.135 3.3-4.995 3.78-7.543.52-2.789-1.64-3.458-3.55-2.604-2.18.982-4.08 2.689-5.35 4.867z" fill="#444FE4"/><path d="M1317.95 840.605c1.55-1.352 2.97-4.213 3.49-5.266 1.16-2.348 3.46-8.895 6.62-8.326 3.11.555 2.68 6.932 2.38 9.28-.78 5.892-4.12 10.944-8.09 14.73-3.36 3.188-9.53 8.255-14.24 7.415-2.67-.484-.91-6.817-.61-8.625.69-4.255 2.06-8.795 5.42-11.343.24-.185.5-.341.79-.355.42 0 .78.341.97.768.28.655.1 1.509.65 2.007.82.754 1.74.469 2.62-.285z" fill="#FF4A57"/><path d="M1346.86 789.17c-1.18.968-1.88 2.505-2.29 4.071-.4 1.565-.53 3.202-.81 4.796-.37 2.206-1 4.355-1.85 6.39-.61 1.48-1.38 2.904-2.46 3.999-1.09 1.082-2.56 1.794-4 1.609-1.45-.185-2.82-1.395-3.07-3.003-.28-1.822.81-3.501 1.71-5.067 1.12-1.964 1.97-4.099 2.56-6.319.66-2.576 1-5.38 2.44-7.529 1.98-2.946 5.82-3.928 8.93-2.704.76.299 2.98 1.267 2.1 2.505-.54.768-2.42.555-3.26 1.252z" fill="#008B86"/><path d="M1350.63 792.23l-4.72-4.198m.18.199c-.75-1.153-.84-2.69-.39-3.999.46-1.31 1.99-3.245 3.3-1.907.47.469.65 1.224.58 1.935-.21 1.779-3.28 3.615-1.66 5.494" stroke="#000" stroke-width=".665" stroke-miterlimit="10" stroke-linecap="round" stroke-linejoin="round"/><path d="M1312.23 855.079s17.58-8.853 30.74-38.171c2.68-5.949 13.92-13.221 17.26-16.48.65-.641 5.51 1.864 5.51 1.864l6.11 3.43c1.33.74 1.51 2.775.33 3.786l-56.84 49.229s-1.26.526-2.48-.285c-1.64-1.082-3.54-2.192-5.35-3.373-.59-.384 3.47 1.224 4.72 0z" fill="#fff" stroke="#000" stroke-width=".332" stroke-miterlimit="10"/><path d="M1372.96 804.171l-66.37 59.903 6.23-.697 62.76-54.282-2.62-4.924z" fill="#000"/><path d="M1360.52 806.774c-2.42-.213-4.81.869-6.85 2.349-3.21 2.32-5.83 5.65-7.44 9.521-1.4 3.359-2.05 7.031-3.05 10.575-.99 3.543-2.42 7.087-4.99 9.45a318.333 318.333 0 0023.47-19.242c1.81-1.637 4.97-4.498 4.65-7.501-.3-2.874-3.47-4.952-5.79-5.152z" stroke="#000" stroke-width=".332" stroke-miterlimit="10"/><path d="M1349.44 819.456l.3.427c.6.868 1.72 1.025 2.5.356l7.16-6.191c.78-.669.92-1.922.32-2.79l-.31-.427c-.6-.868-1.72-1.024-2.5-.356l-7.16 6.191c-.77.669-.91 1.922-.31 2.79z" fill="#FF4A57"/><path d="M1505.79 697.928l-27.46 9.08 21.36 29.375 14.24-9.265-8.14-29.19z" fill="#C14917"/><path d="M1510.9 720.699c-.71.214-4.57 1.552-5.1 2.121-.69.726-.77 1.594-.74 2.604a18.2 18.2 0 01-.23 3.9c-.24 1.509-.74 2.903-1.12 4.369-.22.826.41.669.87.413 1.15-.669 2.3-1.324 3.46-1.993.25-.142 2.93-1.494 2.89-1.665-.01-.014.03-9.777-.03-9.749z" fill="#FFBA15"/><path d="M1518.55 682.913l-18.41 13.25c-3.64 2.363-3.71 5.608-.22 8.155 3.8 2.761 7.81 5.807 9.54 10.475 2.14 5.721-2.71 12.012 2.1 16.082 5.14 4.355 12.69 10.888 17.48 15.713 10.06 10.147 13.56 13.207 13.56 13.207l2.26-3.316-.3-13.279-26.01-60.287z" fill="#000"/><path d="M1513.56 734.263c-.56-.513-1.12-1.039-1.7-1.552-.26-.241-.53-.498-.7-.839-.27-.584-.14-1.31.12-1.893.55-1.281 1.67-2.235 2.92-2.491 1.25-.256 2.6.199 3.52 1.182 1.07 1.152 1.49 2.846 2.39 4.17 1.09 1.636 2.81 2.59 4.47 3.472 1.66.883 3.38 1.808 4.52 3.43 1.91 2.747 1.15 5.109-.79 7.273-4.7-4.526-9.98-8.355-14.75-12.752z" fill="#fff" stroke="#000" stroke-width=".288" stroke-miterlimit="10"/><path d="M1512.69 736.212c-.39-.199-.58-.726-.41-1.167l1.46-3.714c.18-.441.65-.655 1.05-.456.39.2.58.726.4 1.167l-1.45 3.715c-.18.441-.64.655-1.05.455zm2.12 2.732c-.39-.2-.59-.726-.41-1.167l1.71-4.37c.18-.441.65-.654 1.05-.455.39.199.59.726.41 1.167l-1.71 4.369c-.18.441-.64.655-1.05.456zm2.45 1.922c-.39-.199-.59-.726-.41-1.167l1.71-4.369c.18-.441.65-.655 1.05-.456.39.2.59.726.41 1.167l-1.71 4.37c-.18.441-.65.654-1.05.455zm2.26 2.419c-.4-.199-.59-.725-.41-1.167l1.71-4.369c.18-.441.65-.655 1.05-.455.39.199.58.726.41 1.167l-1.71 4.369c-.18.441-.65.641-1.05.455zm2.4 1.894c-.4-.2-.59-.726-.41-1.168l1.71-4.369c.18-.441.65-.654 1.05-.455.39.199.58.726.4 1.167l-1.71 4.369c-.17.455-.65.655-1.04.456zm2.4 1.906c-.4-.199-.59-.726-.41-1.167l1.71-4.369c.18-.441.65-.655 1.04-.455.4.199.59.725.41 1.167l-1.71 4.369c-.16.441-.64.654-1.04.455z" fill="#000"/><path d="M1507.6 694.171c1.09 1.565 1.88 3.387 2.94 4.981 1.25 1.864 2.93 3.444 4.92 4.17 1.99.74 4.29.555 6.02-.74-1.45-5.266-2.91-10.546-4.37-15.812-.36-1.309-.82-2.761-1.92-3.401-.77-.456-1.71-.385-2.56-.143-2.73.74-4.87 2.904-6.85 5.01-.74.783-2.02 1.793-1.3 3.046.29.512 1.18.811 1.63 1.195.56.47 1.01 1.082 1.49 1.694z" fill="#FFBA15"/><path d="M1523.52 718.977c2.26 3.331 6.04 5.309 9.78 5.096.21-.015.44-.043.6-.2.3-.313.12-.868-.07-1.281a62.913 62.913 0 00-4.12-7.215c-1.38-2.064-3.1-5.152-5.09-6.519-2.17-1.494-3.48.555-3.39 2.847.09 2.619.89 5.195 2.29 7.272z" fill="#444FE4"/><path d="M1533.88 743.955c-.61-2.092-2.55-4.54-3.25-5.451-1.58-2.007-6.34-6.632-4.78-9.763 1.51-3.075 6.75-.47 8.62.64 4.71 2.804 7.85 8.027 9.7 13.478 1.55 4.597 3.75 12.795 1.44 17.448-1.3 2.633-6.05-1.352-7.48-2.277-3.35-2.163-6.72-5.152-7.73-9.521-.08-.313-.13-.64-.02-.939.14-.442.56-.712.97-.755.65-.085 1.3.413 1.91 0 .91-.626.97-1.693.62-2.86z" fill="#FF4A57"/><path d="M1500.25 696.22c.44 1.552 1.48 2.818 2.67 3.772 1.19.954 2.51 1.651 3.78 2.476a24.976 24.976 0 014.77 4.099c1.03 1.153 1.99 2.434 2.54 3.943.55 1.508.65 3.273 0 4.739-.65 1.466-2.13 2.49-3.58 2.22-1.63-.313-2.67-2.049-3.7-3.501a22.973 22.973 0 00-4.46-4.825c-1.95-1.58-4.2-2.86-5.53-5.095-1.82-3.074-1.35-7.443.74-10.29.51-.697 2.08-2.704 2.84-1.366.46.811-.37 2.704-.07 3.828z" fill="#008B86"/><path d="M1504.11 693.273l-5.13 3.558m.23-.127c-1.23.413-2.57-.029-3.51-.939-.95-.911-2.06-3.188-.5-4.113.56-.328 1.26-.271 1.83.056 1.42.812 1.95 4.654 4.07 3.601" stroke="#000" stroke-width=".665" stroke-miterlimit="10" stroke-linecap="round" stroke-linejoin="round"/><path d="M1544.17 754.827s-1.53-21.448-21.82-45.173c-4.12-4.824-6.46-19.071-8.08-23.682-.31-.897 3.44-5.166 3.44-5.166l4.95-5.252c1.07-1.139 2.84-.64 3.3.925l22.34 76.299s.01 1.508-1.07 2.519c-1.47 1.352-3.04 2.96-4.64 4.469-.53.512 2.19-3.203 1.58-4.939z" fill="#fff" stroke="#000" stroke-width=".332" stroke-miterlimit="10"/><path d="M1521.73 673.876l28.13 89.919 1.52-6.775-24.6-84.226-5.05 1.082z" fill="#000"/><path d="M1519.74 687.823c-1 2.477-.9 5.352-.34 7.999.87 4.156 2.81 8.027 5.53 11.03 2.36 2.604 5.24 4.54 7.9 6.774 2.65 2.235 5.15 4.939 6.29 8.426a383.074 383.074 0 00-8.32-31.14c-.77-2.463-2.12-6.746-4.76-7.43-2.54-.654-5.36 1.979-6.3 4.341z" stroke="#000" stroke-width=".332" stroke-miterlimit="10"/><path d="M1526.69 703.735l.47-.171c.93-.341 1.44-1.466 1.14-2.505l-2.81-9.606c-.31-1.039-1.31-1.608-2.25-1.267l-.47.171c-.93.341-1.44 1.466-1.13 2.505l2.8 9.606c.31 1.039 1.32 1.609 2.25 1.267z" fill="#FF4A57"/><path d="M1250.54 694.527c2.2-5.622 5.94-10.333 9.92-14.56 9.57-10.119 43.01-40.547 53.16-49.883 11.78-10.831 25.79-21.348 39.39-29.219l40.84 24.906-2.59 7.202 10 6.817 14.75 60.259s1.1 13.919 17.91 8.539c16.82-5.38 51.15-3.8 51.15-3.8l14.63 31.61c-26.89 15.484-55.32 32.15-85.31 37.103-9.12 1.508-17.51 2.676-24.91-4.739-4.09-4.099-6.92-9.522-9.26-15.086-5.6-13.308-9.7-27.013-14.45-40.704-4.88-14.047-9.69-28.507-12.41-43.337.26 1.423-12.68 10.83-14.28 12.211-6.65 5.679-13.69 10.973-20.07 17.036-3.82 3.629-7.1 8.753-6.71 14.346.47 6.846 5.69 13.506 8.33 19.597 2.85 6.604 5.38 13.393 7.79 20.21 2.09 5.892 4.07 11.841 5.99 17.804.16.541 2.66 7.102 2.32 7.444l-23.9 22.985c-21.64-23.597-44.83-48.66-58.48-78.86-4.15-9.209-7.79-17.705-3.81-27.881z" fill="#008B86" stroke="#000" stroke-width=".332" stroke-miterlimit="10"/><path d="M1499.69 736.383l-8.58-33.602-6.05 2.007 14.63 31.595z" fill="#181357"/><path d="M1490.31 714.865s-73.68 27.155-80.6 12.595c-6.94-14.559-20.99-84.467-20.99-84.467" stroke="#FFFBFF" stroke-width=".665" stroke-miterlimit="10"/><path d="M1493.34 720.173s-80.97 28.535-88.34 13.079c-7.38-15.47-22.32-89.79-22.32-89.79m-59.04 147.986s-49.71-73.353-39.77-86.916c9.94-13.563 63.17-51.947 63.17-51.947" stroke="#FFFBFF" stroke-width=".707" stroke-miterlimit="10"/><path d="M1328.42 789.199s-45.14-70.093-36.58-82.518c8.57-12.425 59.68-49.884 59.68-49.884" stroke="#FFFBFF" stroke-width=".644" stroke-miterlimit="10"/><path d="M1353.35 669.621l-1.83-12.837-5.67-6.633" stroke="#FFFBFF" stroke-width=".707" stroke-miterlimit="10"/><path d="M1374.4 493.882s3.33 5.892-.84 10.617l-4.18 4.056-.49-7.884-.22-9.322 5.73 2.533z" fill="#4A1C09"/><path d="M1358.94 544.762c-14.83-5.053-10.3-17.15-10.23-18.602 7.22-4.711 7.6-7.173 7.6-7.173l.54-10.688 6.43.398 7.21-6.006.42 16.766s5.64.982 15 3.387c1.53 12.524-16.14 25.618-26.97 21.918z" fill="#C14917"/><path d="M1356.7 511.359c2.06 1.779 4.49 2.647 6.95 2.263 2.4-.385 3.49-3.345 5.01-5.608 0 0-.26 11.172-12.35 10.973l.39-7.628z" fill="#181357"/><path d="M1370.79 500.6c-1.15 9.82-4.88 14.73-10.8 15.072-5.92.341-9.37-3.046-9.69-21.519-.15-8.739 3.89-10.347 9.81-10.689 5.91-.341 11.69 8.468 10.68 17.136z" fill="#C14917"/><path d="M1373.64 499.874c-.33 2.106-1.66 3.615-2.97 3.359-1.31-.257-2.1-2.178-1.77-4.284.34-2.107 1.66-3.615 2.98-3.359 1.3.256 2.09 2.177 1.76 4.284z" fill="#C14917"/><path d="M1358.88 504.343s-1.2.541-1.78-.441c-.56-.982.94-3.231.94-3.231" stroke="#000" stroke-width=".373" stroke-miterlimit="10"/><path d="M1359.36 507.203s2.25-.398 4.17-1.907c0 0 .64 8.141-4.17 1.907z" fill="#000"/><path d="M1364.18 498.151s-1.93-1.977-3.67.27m-4.16.057s-1.8-2.148-3.67-.042" stroke="#000" stroke-width=".373" stroke-miterlimit="10" stroke-linecap="round"/><path d="M1370.42 501.908s-.48-3.757 1.74-3.643" stroke="#000" stroke-width=".373" stroke-miterlimit="10"/><path d="M1359.27 498.422c0 1.95 1.42 3.53 3.17 3.53 1.74 0 3.16-1.58 3.16-3.53 0-1.95-1.42-3.529-3.16-3.529-1.75 0-3.17 1.579-3.17 3.529zm-8.27 0c0 1.95 1.42 3.53 3.17 3.53s3.16-1.58 3.16-3.53c0-1.95-1.41-3.529-3.16-3.529-1.75 0-3.17 1.579-3.17 3.529z" fill="#000"/><path d="M1364.18 496.201l6.73-.483m-11.06 2.262c0-.982-.72-1.764-1.59-1.764-.88 0-1.58.797-1.58 1.764" stroke="#000" stroke-width=".373" stroke-miterlimit="10"/><path d="M1351.86 498.763s-.43-3.387 3.13-2.732zm8.28 0s-.43-3.387 3.13-2.732z" fill="#fff"/><path d="M1370.91 495.462s-2.22 3.074-3.62-.228l-.76-2.462s-3.49 1.935-4.36-.712c-.87-2.647-.28-2.12-.28-2.12l8.13 1.679.89 3.843zm-11.78-4.853s-.64 3.544-2.92 2.035l-1.5-1.267s-1.56 3.074-3.22 1.737c-1.66-1.338-1.05-1.281-1.05-1.281l5.18-1.865 3.51.641z" fill="#4A1C09"/><path d="M1357.89 475.95c3.36-.797 7.06-.541 10.22 1.11 3.61 1.893 5.67 5.18 6.19 9.564.14 1.167.1 2.974.13 4.155l.09.043c-.09 1.025-.09 2.035-.12 3.046-7.04-2.576-16.22-4.555-24.03-1.708 0 .014-1.38-14.118 7.52-16.21z" fill="#008B86"/><path d="M1374.43 489.228s-16.8-6.746-24.13-1.238m22.82.755l-.04 5.906m-2.17-6.676l-.68 5.678m-1.57-6.29l-.56 5.437m-1.63-5.935l-.4 6.12m-1.53-6.547l-.97 5.281m-2.1-5.736l.44 6.035m-2.06-6.163l-.58 5.864m-1.92-5.878v5.878m-1.82-5.807l-.66 5.622m-2.19-4.825l.49 5.252m-1.81-4.655v5.28" stroke="#000" stroke-width=".183" stroke-miterlimit="10"/><path d="M1347.28 524.268s-34.91 5.209-50.19-9.564c-15.3-14.773-29.88-39.38-29.88-39.38l-24.27 25.632 28.96 48.631s7.01 9.735 20.15 12.852c10.36 2.447 42.22 7.144 42.93 6.247.73-.925 12.3-44.418 12.3-44.418z" fill="#444FE4"/><path d="M1275.39 485.913l-24.22 28.82" stroke="#000" stroke-width=".332" stroke-miterlimit="10"/><path d="M1250.15 502.108c0 .626.46 1.124 1.01 1.124.56 0 1.01-.512 1.01-1.124 0-.626-.46-1.124-1.01-1.124-.56 0-1.01.498-1.01 1.124z" fill="#000"/><path d="M1250.88 557.941c.01 13.635 9.92 24.679 22.15 24.679 12.22-.014 22.12-11.073 22.12-24.707-.01-13.634-9.93-24.679-22.15-24.679-12.22 0-22.14 11.059-22.12 24.707z" fill="#3942BF"/><path d="M1239 471.068c-1.25-3.33-3.2-6.476-3.15-10.148.04-2.789 1.68-3.814 3.51-2.348 2.85 2.292 4.86 5.38 6.54 8.696" fill="#C14917"/><path d="M1243 465.318c-1.23-3.287-2.29-5.863-2.64-9.45-.21-2.32 1-4.696 3.06-3.416 2.66 1.651 4.01 4.37 5.5 7.145.74 1.38 1.46 2.804 2.13 4.227" fill="#C14917"/><path d="M1248.48 460.493c-1.24-3.288-2.57-4.782-2.9-8.369-.22-2.32 1.44-4.227 3.51-2.946 2.65 1.651 3.82 2.832 5.31 5.608" fill="#C14917"/><path d="M1253.11 452.552l2.72 3.572s1.73-12.994 4.32-9.023c1.88 2.875 2.82 9.009 3.25 12.909.39 3.501 1.1 6.931 2.16 10.247.45 1.423 1.01 3.088 1.69 5.024l-23.57 24.863c-2.72-5.465-6.9-15.641-9.36-21.262-1.51-3.43-2.96-6.903-4.29-10.418-1.23-3.259-2.88-7.102-3.1-10.66-.14-2.42 1.02-4.668 3.12-3.288 2.7 1.765 4.53 5.65 6.05 8.525.68 1.281 1.33 2.59 1.97 3.9-.11-.199.84-1.793.94-1.993.72-1.523 1.43-3.045 2.14-4.568.74-1.566 1.48-3.145 2.22-4.711.31-.655.88-1.267 1.05-1.978.04-.157 1.9 1.523 1.9 1.366" fill="#C14917"/><path d="M1241.9 460.537c1.4 2.789 3.4 6.29 3.75 9.492.25 2.434-1.02 3.459-2.72 2.335-2.65-1.751-4.7-5.209-6.47-7.942" fill="#C14917"/><path d="M1241.9 460.537c1.4 2.789 3.4 6.29 3.75 9.492.25 2.434-1.02 3.459-2.72 2.335-2.65-1.751-4.7-5.209-6.47-7.942" stroke="#000" stroke-width=".332" stroke-miterlimit="10"/><path d="M1246.69 455.783c1.41 2.789 3.24 5.963 3.59 9.165.25 2.434-1.02 3.459-2.72 2.334-2.65-1.75-4.38-4.027-6.15-6.774" fill="#C14917"/><path d="M1246.69 455.783c1.41 2.789 3.24 5.963 3.59 9.165.25 2.434-1.02 3.459-2.72 2.334-2.65-1.75-4.38-4.027-6.15-6.774" stroke="#000" stroke-width=".332" stroke-miterlimit="10"/><path d="M1252.23 452.41c1.16 2.931 2.86 6.618 2.92 9.848.05 2.448-1.31 3.331-2.91 2.021-2.49-2.035-4.23-5.678-5.75-8.596" fill="#C14917"/><path d="M1252.23 452.41c1.16 2.931 2.86 6.618 2.92 9.848.05 2.448-1.31 3.331-2.91 2.021-2.49-2.035-4.23-5.678-5.75-8.596" stroke="#000" stroke-width=".332" stroke-miterlimit="10"/><path d="M1252.18 474.782c-3.61-9.364 3.65-18.658 3.65-18.658l3.75 4.455-3.43 8.468-3.97 5.735z" fill="#C14917"/><path d="M1252.18 474.783c-3.61-9.365 3.17-17.762 3.17-17.762z" fill="#C14917"/><path d="M1252.18 474.783c-3.61-9.365 3.17-17.762 3.17-17.762" stroke="#000" stroke-width=".332" stroke-miterlimit="10"/><path d="M1267.22 475.309l-26.08 19.398 2.54 5.437 23.54-24.835z" fill="#181357"/><path d="M1370.46 529.05l-1.06 103.61-36.78-10.02 11.95-66.179 10.08-30.442" fill="#FFBA15"/><path d="M1348.31 521.649s6.15-1.01 7.77 7.999c1.62 9.023-13.42 71.217-21.11 111.209 0 0-9.51 4.313-28.67-17.847 11.21-5.863 19.03-26.343 21.71-40.348 3.23-16.851 6.31-28.934 11.96-44.774 1.49-4.184 4.29-10.788 7.08-15.798.23-.412.82-.37 1.26-.441z" fill="#444FE4"/><path d="M1330.95 568.558c3.62-12.296 5.2-19.968 9.02-30.656 1.49-4.184 4.29-10.788 7.08-15.798m5.4 6.947c-.23.811-7.14 7.956-7.14 7.956l5.2 6.874m.3 1.166c-2.5 14.432-11.66 49.457-19.53 86.133 0 0-8.7 2.975-27.86-19.17" stroke="#000" stroke-width=".373" stroke-miterlimit="10"/><path d="M1376.06 520.141s17.78 1.067 24.4 9.436c6.62 8.368-2.45 80.539 15.97 113.415 0 0-20.31 19.527-53.98 8.483l1.35-104.35s.03-18.858 12.26-26.984z" fill="#444FE4"/><path d="M1370.91 529.05c.08.839 4.22 10.574 4.22 10.574l-6.29 6.02m1.69 100.252l-1.94-99.141m46.22 90.246c-19.95 13.976-43.65 9.109-44.28 8.895" stroke="#000" stroke-width=".373" stroke-miterlimit="10"/><path d="M1370.69 515.786s7.06-.512 9.43 7.443c-.57 6.761-8.74 14.944-18.5 14.232-9.76-.711-12.03-10.702-12.03-12.125 0-7.415 6.84-8.283 6.84-8.283l-.05 1.039c-.14 2.803 1.04 5.536 3.19 7.03 1.93 1.338 4.73 1.751 8.43-1.409 1.79-1.523 2.81-3.928 2.74-6.447l-.05-1.48z" fill="#FFBA15"/><path d="M1362.27 534.202s-2.97 6.832.37 12.98m-2.73-12.98s-5.57 4.355-5.34 11.542" stroke="#000" stroke-width=".373" stroke-miterlimit="10"/><path d="M1362.18 547.04l.66-.37 1.33 1.978-1.59.911-.4-2.519zm-8-1.609l.74.029.31 2.447-1.8-.072.75-2.404z" fill="#000"/><path d="M1324.59 602.943c-3.03-1.252-3.2-1.437-5.57-3.985-1.81-1.935-.64-5.095 1.57-5.593 3.44-.768 6.12.84 9.45 1.722" fill="#C14917"/><path d="M1328.27 596.07c-3-1.239-5.41-2.121-8-4.284-1.67-1.409-2.31-3.743-.15-4.825 3.07-1.537 5.6-.285 8.43.384 1.42.342 2.82.726 4.22 1.139" fill="#C14917"/><path d="M1329.3 588.925c-3-1.238-4.88-1.181-7.46-3.344-1.67-1.409-1.79-4.057.46-4.882 2.89-1.039 4.46-1.181 7.3-.498" fill="#C14917"/><path d="M1325.45 580.144l4.2.213s-7.34-10.275-2.98-9.692c3.17.427 7.84 3.843 10.68 6.148 2.56 2.064 5.3 3.829 8.19 5.238 1.24.598 3.39 1.366 5.11 2.12l-4.57 34.271c-5.43-1.508-10.83-3.202-16.19-5.024-3.28-1.11-6.55-2.291-9.76-3.615-2.97-1.224-6.62-2.49-9.11-4.753-1.68-1.523-2.36-4.014-.03-4.782 3-.982 6.8.156 9.73.882 1.3.313 2.6.683 3.9 1.053-.2-.056-.6-1.907-.66-2.12l-1.53-4.868c-.53-1.679-1.05-3.344-1.59-5.023-.21-.698-.23-1.58-.58-2.206-.08-.143 2.29-.513 2.19-.627" fill="#C14917"/><path d="M1350.66 584.185l-8.09 33.246 3.52 1.025 4.57-34.271z" fill="#181357"/><path d="M1376.85 546.669c.02-.697.5-5.009.67-5.692.65-2.776 1.64-8.298 6.16-11.813 5.48-4.27 8.33-5.579 13.91-1.466 7.94 5.878 9.55 16.097 11.15 25.874 2.17 13.264 1.86 26.998-.22 40.248-1.65 10.518-5.42 24.081-15.11 28.749-4.59 2.221-12.49.242-17.49.114-7.39-.185-17.5-2.063-29.83-4.241l4.57-34.271s2.76.37 6.06.783c9.58 1.224 25.35 9.578 20.8-17.05-.4-2.32-.48-8.966-.59-11.329-.23-4.725-.18-5.607-.08-9.906z" fill="#444FE4"/><path d="M1410.15 642.151c8.64-9.642 8.64-25.276 0-34.918-8.65-9.643-22.66-9.643-31.31 0-8.64 9.642-8.64 25.276 0 34.918 8.65 9.643 22.66 9.643 31.31 0z" fill="#3942BF"/><path d="M1394.5 526.403c-3.7-.755-7.81.27-10.82 2.761-6.05 4.995-6.95 14.047-6.93 21.803.03 7.358 1.01 14.674 1.12 22.032.08 4.625.49 13.036-5.14 13.933-1.21.199-2.43.014-3.63-.157-6.36-.925-8.79-1.451-15.17-2.191m52.13 21.106s-6.62 16.766-15.52 17.762c-8.89.996-44.44-4.995-44.44-4.995m16.34-32.663l-3.72 34.641" stroke="#000" stroke-width=".373" stroke-miterlimit="10"/><path d="M1355.41 591.599c.55 0 1-.503 1-1.124 0-.62-.45-1.123-1-1.123-.56 0-1.01.503-1.01 1.123 0 .621.45 1.124 1.01 1.124z" fill="#000"/><path d="M1068.07 737.793c.4-.499 72.29-26.387 72.29-26.387l-.15 7.102-71.78 27.639-.36-8.354z" fill="#C14917"/><path d="M984.695 811.06l28.785 6.219-15.554 38.284-26.104-9.62-1.952-15.77 14.825-19.113z" fill="#FFCCD3"/><path d="M965.598 801.709s16.075.057 20.094 9.323c0 0-5.703 6.404-10.015 13.463-3.177 5.181-4.415 11.571-3.254 17.719.243 1.253.562 2.491 1.021 3.601l-4.287 5.636a1443.342 1443.342 0 01-9.543 12.367c-2.233 2.861-4.466 5.722-6.737 8.54-2.105 2.618-3.904 5.593-6.353 7.842-.702.654-1.518 1.195-2.45 1.152-.574-.028-1.875-.256-1.607-1.209-.013.028 23.131-78.434 23.131-78.434z" fill="#008B86"/><path d="M977.513 802.108c.293.228-3.547 19.982-19.367 18.302l7.042-23.696 12.325 5.394zm-23.029 32.407s6.852 3.131 5.04 9.236c-1.812 6.106-5.461 12.98-4.746 17.406.714 4.426 3.776 6.148 3.776 6.148s-10.27 16.068-10.551 16.325c-.293.256-6.277.654-6.277.654l-2.45-2.448 15.208-47.321z" fill="#FFC438"/><path d="M972.499 851.309c.46-.327.587-1.025.294-1.537l-2.909-5.01c-.294-.512-.919-.654-1.378-.327-.46.327-.587 1.025-.294 1.537l2.909 5.01c.294.512.919.654 1.378.327zm-2.539 3.743c.46-.328.587-1.025.294-1.537l-2.909-5.01c-.294-.512-.919-.655-1.378-.327-.46.327-.587 1.024-.294 1.537l2.909 5.009c.294.513.919.669 1.378.328zm-2.551 3.743c.459-.328.586-1.025.293-1.537l-2.909-5.01c-.294-.512-.919-.655-1.378-.327-.46.327-.587 1.024-.294 1.537l2.909 5.009c.307.513.919.669 1.379.328zm-2.54 3.757c.46-.327.587-1.025.294-1.537l-2.909-5.01c-.294-.512-.919-.654-1.378-.327-.46.327-.587 1.025-.294 1.537l2.909 5.01c.294.512.919.654 1.378.327zm-2.538 3.743c.46-.327.587-1.024.294-1.537l-2.909-5.009c-.294-.513-.919-.655-1.378-.328-.46.328-.587 1.025-.294 1.537l2.909 5.01c.294.512.919.655 1.378.327z" fill="#fff"/><path d="M976.454 799.688c.294.228-3.547 19.982-19.367 18.303m-4.899 17.136s7.413 3.344 5.563 9.578c-1.85 6.234-5.653 13.208-4.811 17.762.83 4.554 4.147 6.39 4.147 6.39" stroke="#fff" stroke-width=".332" stroke-miterlimit="10"/><path d="M935.116 875.815l22.277-74.975c.472-1.565 1.901-2.505 3.355-2.206l5.422 1.153-24.381 82.048-4.746-1.75c-1.582-.598-2.45-2.505-1.927-4.27z" fill="#fff" stroke="#000" stroke-width=".332" stroke-miterlimit="10"/><path d="M963.76 799.418l-24.241 81.578" stroke="#000" stroke-width=".332" stroke-miterlimit="10"/><path d="M938.217 880.513l9.251-31.112-3.267-4.155" stroke="#008B86" stroke-width=".332" stroke-miterlimit="10"/><path d="M961.802 802.683l1.486-4.998-3.21-1.187-1.485 4.999 3.209 1.186z" fill="#FF4A57"/><path d="M982.871 851.494l6.635-39.395 6.736 1.452-13.371 37.943z" fill="#181357"/><path d="M1068.07 737.793l-5.28 67.787s.23 13.962-17.01 10.589c-17.23-3.373-45.28-14.986-45.28-14.986l-18.739 54.352c28.209 12.24 59.789 26.045 90.089 27.44 10.43.484 19.76-.683 26.23-10.859 3.5-5.494 5.42-12.027 7.09-18.502 3.01-11.699 6.61-22.957 9.36-34.755a465.917 465.917 0 007.4-39.75l-4.64-59.633-49.22 18.317z" fill="#C14917"/><path d="M1194.11 850.824l-3.43-31.382 37.47 4.427.03 30.656-12.81 7.03-21.26-10.731z" fill="#FFCCD3"/><path d="M1192.49 875.033s-5.01-17.05 1.62-24.209c0 0 7.25 4.014 14.62 6.376 5.41 1.722 11.24 1.039 16.11-2.135.99-.64 1.93-1.38 2.74-2.206 2.05.911 4.09 1.836 6.14 2.776 4.51 2.049 9.03 4.113 13.52 6.219 3.14 1.466 6.28 2.932 9.39 4.455 2.9 1.409 5.98 2.377 8.68 4.255.77.541 1.49 1.224 1.74 2.235.16.612.37 2.077-.52 2.077.01-.014-74.04.157-74.04.157z" fill="#008B86"/><path d="M1189.09 862.295c.1-.384 18.11-2.533 21.66 14.759h-22.37l.71-14.759zm34.83 14.19s.51-8.24 6.27-8.24c5.77 0 12.76 1.693 16.31-.456 3.55-2.149 4.04-5.935 4.04-5.935s16.91 5.821 17.22 6.049c.3.228 2.52 6.433 2.52 6.433l-1.31 3.359-45.05-1.21z" fill="#FFC438"/><path d="M1232.54 852.133c-.42-.384-1.06-.299-1.4.171l-3.36 4.654c-.34.469-.27 1.181.16 1.565.42.385 1.05.299 1.4-.17l3.35-4.654c.34-.484.27-1.196-.15-1.566zm3.98 1.508c-.42-.384-1.06-.298-1.4.171l-3.36 4.654c-.34.47-.26 1.181.16 1.566.42.384 1.06.299 1.4-.171l3.36-4.654c.34-.484.28-1.181-.16-1.566zm4 1.51c-.43-.385-1.06-.299-1.41.17l-3.35 4.654c-.35.47-.27 1.182.15 1.566.42.384 1.06.299 1.4-.171l3.36-4.654c.34-.469.27-1.181-.15-1.565zm3.98 1.523c-.42-.385-1.06-.299-1.41.17l-3.35 4.654c-.35.47-.27 1.182.15 1.566.42.384 1.06.299 1.4-.171l3.36-4.654c.34-.484.28-1.181-.15-1.565zm3.99 1.508c-.42-.384-1.06-.299-1.4.171l-3.36 4.654c-.34.469-.27 1.181.15 1.565.42.384 1.06.299 1.41-.171l3.35-4.654c.35-.483.27-1.181-.15-1.565z" fill="#fff"/><path d="M1187.36 864.188c.11-.384 18.12-2.533 21.67 14.759m16.14-.214s.51-8.909 6.4-8.909c5.88 0 13.02 1.836 16.63-.484 3.61-2.32 4.13-6.404 4.13-6.404" stroke="#fff" stroke-width=".332" stroke-miterlimit="10"/><path d="M1265.14 883.999h-70.81c-1.48 0-2.73-1.224-2.93-2.86l-.73-6.092h77.49v5.579c.02 1.865-1.35 3.373-3.02 3.373z" fill="#fff" stroke="#000" stroke-width=".332" stroke-miterlimit="10"/><path d="M1191.13 877.708h77.05" stroke="#000" stroke-width=".332" stroke-miterlimit="10"/><path d="M1268.18 879.232h-29.39l-2.51 4.768" stroke="#008B86" stroke-width=".332" stroke-miterlimit="10"/><path d="M1194.53 878.763h-4.72v3.771h4.72v-3.771z" fill="#FF4A57"/><path d="M1228.94 836.037l-36.42.171.73 6.675 35.69-6.846z" fill="#181357"/><path d="M1114.69 782.41l60.71-15.456s1.34-1.708 2.37 12.795c1.39 19.455 2.83 56.459 2.83 56.459h55.71c1.41-22.629.34-42.469-.07-63.945-.19-10.333-.89-20.637-2.15-30.884-.9-7.258-1.79-14.816-4.65-21.49-4.62-10.76-13.97-14.574-23.98-15.912-13.09-1.75-29.46 2.434-42.38 5.252-26.75 5.849-25.1 5.664-34.93 7.443l-42.24 17.634 28.78 48.104z" fill="#C14917"/><path d="M1175.4 766.954l5.2-12.709M996.242 870.18l22.188-68.898m-11.1 34.442s50.22 18.644 60.74 7.159c10.52-11.486 16.21-84.952 16.21-84.952m89.25 58.978l70.58-.384m-122.17-48.631s72.62-38.541 75.72-22.786c3.1 15.755 5.84 71.63 5.84 71.63m-81.57-36.179v-49.101m.01 27.939l2.5-.74c1.56-.455 2.82-1.722 3.39-3.401.23-.669.35-1.381.34-2.107l-.45-24.379" stroke="#000" stroke-width=".332" stroke-miterlimit="10"/><path d="M982.004 599.798a398.026 398.026 0 01-6.341-16.281c-1.417-3.9-2.794-7.814-3.994-11.799-1.033-3.415-2.628-7.742-2.347-11.4.217-2.789 1.913-3.671 3.649-2.063 2.704 2.505 4.35 6.774 5.83 10.218.357.826.702 1.666 1.034 2.505" fill="#FFCCD3"/><path d="M986.036 592.554a400.175 400.175 0 01-5.997-15.342c-1.531-4.17-3.011-8.369-4.312-12.638-1.021-3.373-2.322-7.173-2.437-10.788-.076-2.334 1.289-4.611 3.266-3.16 2.539 1.85 4.134 5.835 5.435 8.71a100.42 100.42 0 011.863 4.384" fill="#FFCCD3"/><path d="M984.313 569.583c.038-.783-.319-1.622-.536-2.348-.651-2.192-1.314-4.939-2.003-7.131-.625-2.006-.855-3.558-.919-5.707-.038-1.594-.166-4.895 2.003-4.483 2.169.413 3.802 4.327 4.721 6.191 1.276 2.605 2.207 5.394 3.457 8.013l4.428 9.279s2.538-12.823 4.886-8.667c1.7 3.017 2.25 9.208 2.42 13.136.17 3.516.67 7.002 1.51 10.39.36 1.451.8 3.159 1.36 5.137l-26.392 18.218a399.167 399.167 0 01-6.686-17.207c-1.288-3.544-2.513-7.116-3.611-10.731-1.02-3.345-2.424-7.315-2.411-10.888.013-2.419 1.314-4.568 3.317-3.031 2.578 1.978 4.16 5.992 5.499 8.98.6 1.338 1.161 2.69 1.71 4.042-.089-.213.957-1.722 1.059-1.921.804-1.466 1.62-2.918 2.424-4.384.842-1.508 1.671-3.017 2.513-4.525.345-.627.957-1.196 1.161-1.893.064-.143.09-.299.09-.47z" fill="#FFCCD3"/><path d="M971.67 571.718l4.057 9.692m-1.403-21.647l6.673 15.94m-.103-18.9l5.129 14.161" stroke="#000" stroke-width=".332" stroke-miterlimit="10"/><path d="M994.418 574.963s-8.038 6.447-5.027 16.068z" fill="#FFCCD3"/><path d="M994.418 574.963s-8.038 6.447-5.027 16.068" stroke="#000" stroke-width=".332" stroke-miterlimit="10"/><path d="M1005.65 593.351s8.59 27.055 31.71 43.55c23.11 16.495 52.06 3.501 52.06 3.501l-17.39 44.704s-22.8 9.407-53.72-10.803c-30.909-20.209-39.049-62.721-39.049-62.721l26.389-18.231z" fill="#FFCCD3"/><path d="M1049.7 643.035l2 43.92-8.12 1.552 6.12-45.472z" fill="#181357"/><path d="M1224.68 594.817a398.055 398.055 0 006.34-16.282c1.42-3.899 2.8-7.813 4-11.798 1.03-3.416 2.62-7.742 2.34-11.4-.21-2.79-1.91-3.672-3.64-2.064-2.71 2.505-4.36 6.775-5.84 10.219-.35.825-.7 1.665-1.03 2.505" fill="#FFCCD3"/><path d="M1220.66 587.573c2.11-5.067 4.1-10.176 6-15.343 1.53-4.17 3.01-8.368 4.31-12.638 1.02-3.373 2.32-7.173 2.44-10.788.08-2.334-1.29-4.611-3.27-3.159-2.54 1.85-4.13 5.835-5.43 8.71-.65 1.437-1.28 2.903-1.87 4.383" fill="#FFCCD3"/><path d="M1222.37 564.602c-.04-.783.32-1.623.54-2.349.65-2.191 1.31-4.938 2-7.13.63-2.007.86-3.558.92-5.707.04-1.594.17-4.896-2-4.483-2.17.413-3.8 4.326-4.72 6.191-1.28 2.604-2.21 5.394-3.46 8.013l-4.43 9.279s-2.54-12.823-4.88-8.668c-1.7 3.018-2.25 9.209-2.43 13.137a53.256 53.256 0 01-1.5 10.389c-.36 1.452-.81 3.16-1.37 5.138l26.4 18.217a392.938 392.938 0 006.68-17.207c1.29-3.543 2.52-7.116 3.61-10.731 1.02-3.344 2.43-7.315 2.42-10.887-.02-2.42-1.32-4.569-3.32-3.032-2.58 1.979-4.16 5.992-5.5 8.981-.6 1.338-1.16 2.69-1.71 4.042.09-.214-.96-1.722-1.06-1.922-.8-1.465-1.62-2.917-2.42-4.383-.85-1.509-1.67-3.017-2.52-4.526-.34-.626-.95-1.195-1.16-1.893a2.192 2.192 0 01-.09-.469z" fill="#FFCCD3"/><path d="M1235.03 566.736l-4.06 9.692m1.41-21.646l-6.68 15.94m.09-18.901l-5.13 14.161" stroke="#000" stroke-width=".332" stroke-miterlimit="10"/><path d="M1212.27 569.982s8.04 6.447 5.03 16.068z" fill="#FFCCD3"/><path d="M1212.27 569.982s8.04 6.447 5.03 16.068" stroke="#000" stroke-width=".332" stroke-miterlimit="10"/><path d="M1201.05 588.426s-8.6 27.056-31.71 43.551-49.7 6.333-49.7 6.333l27.6 39.466s10.22 10.076 41.14-8.397c31.59-18.872 39.06-62.721 39.06-62.721l-26.39-18.232z" fill="#FFCCD3"/><path d="M1161.46 636.417l5.78 42.511 6.98.015-12.76-42.526z" fill="#181357"/><path d="M1100.22 624.818c-2.18-1.167-3.82-3.302-5.11-5.579-1.29-2.277-2.29-4.753-3.59-7.03-.78-1.367-1.66-2.662-2.31-4.099-.65-1.438-1.08-3.074-.85-4.668.21-1.594 1.2-3.131 2.6-3.558.49-.143 1-.157 1.48-.285 1.52-.413 2.59-1.879 3.45-3.316.86-1.438 1.71-3.017 3.06-3.857 1.06-.655 1.58-2.22 2.57-3.003 1-.783 2.31-1.181 3.45-.683.54.228 1.01.654 1.58.754 1.74.313 2.78-2.334 4.51-2.747 1.37-.327 2.62.868 3.62 1.993.99 1.11 2.21 2.334 3.6 2.078.55-.1 1.04-.441 1.58-.627.88-.313 1.84-.227 2.75-.085.96.157 2.02.47 2.51 1.395.53.996.29 2.49 1.14 3.159.67.527 1.57.185 2.39.228 1.73.1 3.04 2.434 2.35 4.213-.26.64-.7 1.195-.82 1.878-.17.94.34 1.893.31 2.847-.04 1.11-.82 2.064-1.74 2.505-.92.441-1.95.455-2.95.37-.83-.071-1.79-.128-2.34.569.9 1.224 2.54 1.252 3.96 1.267.22 0 .46.014.63.185.2.227.17.626-.01.882-.18.256-.48.37-.74.47-3.18 1.138-6.92-.114-9.01-3.017-.4-.541-.74-1.153-1.23-1.594-.39-.356-.85-.598-1.32-.826a15.74 15.74 0 00-8.82-1.309c-.61.085-1.22.213-1.77.512-.69.37-1.25.996-1.71 1.679-1.76 2.619-2.2 6.021-2.34 9.28-.14 3.287-.02 6.902-.88 10.019z" fill="#000"/><path d="M1110.63 662.178c14.83-5.053 12.55-19.228 12.48-20.666-7.72-4.355-9.85-5.095-9.85-5.095l-.53-10.688-6.43.399-7.21-6.006-.42 16.765s-5.37 2.007-14.29 5.124c-1.55 12.524 15.42 23.867 26.25 20.167z" fill="#FFCCD3"/><path d="M1112.88 628.789c-2.07 1.779-4.49 2.647-6.95 2.263-2.4-.384-3.5-3.345-5.02-5.608 0 0 .27 11.173 12.35 10.973l-.38-7.628z" fill="#181357"/><path d="M1098.78 618.029c1.15 9.82 4.89 14.73 10.81 15.072 5.92.342 9.36-3.046 9.68-21.519.15-8.738-3.89-10.347-9.81-10.688-5.91-.356-11.69 8.454-10.68 17.135z" fill="#FFCCD3"/><path d="M1098.93 620.629c1.31-.256 2.1-2.17 1.77-4.276-.34-2.106-1.66-3.605-2.97-3.349-1.3.256-2.09 2.17-1.76 4.276.33 2.106 1.66 3.605 2.96 3.349z" fill="#FFCCD3"/><path d="M1110.7 621.772s1.2.541 1.77-.441c.56-.982-.93-3.23-.93-3.23m-1.33 6.517s-3.12 1.466-4.17-1.906" stroke="#000" stroke-width=".373" stroke-miterlimit="10"/><path d="M1105.39 615.581s1.94-1.978 3.68.27m4.15.057s1.8-2.148 3.68-.042" stroke="#000" stroke-width=".373" stroke-miterlimit="10" stroke-linecap="round"/><path d="M1099.15 619.338s.49-3.757-1.73-3.643" stroke="#000" stroke-width=".373" stroke-miterlimit="10"/><path d="M1107.32 611.738l-1.48.256c-.21.043-.41-.128-.45-.355-.04-.228.12-.456.32-.498l1.48-.257c.2-.042.41.129.45.356.04.242-.11.47-.32.498zm9.66-.341l-1.46-.384c-.2-.057-.42.085-.47.313-.05.227.07.469.28.526l1.45.384c.21.057.42-.085.48-.313.06-.242-.08-.484-.28-.526z" fill="#000"/><path d="M1107.14 619.623c-1.86 0-3.38-1.694-3.38-3.771 0-2.078 1.52-3.772 3.38-3.772 1.86 0 3.38 1.694 3.38 3.772 0 2.077-1.52 3.771-3.38 3.771zm0-7.073c-1.63 0-2.96 1.48-2.96 3.302 0 1.821 1.33 3.301 2.96 3.301s2.96-1.48 2.96-3.301c-.01-1.822-1.34-3.302-2.96-3.302zm8.25 7.073c-1.86 0-3.38-1.694-3.38-3.771 0-2.078 1.52-3.772 3.38-3.772 1.87 0 3.38 1.694 3.38 3.772 0 2.077-1.5 3.771-3.38 3.771zm0-7.073c-1.63 0-2.96 1.48-2.96 3.302 0 1.821 1.33 3.301 2.96 3.301 1.64 0 2.96-1.48 2.96-3.301 0-1.822-1.32-3.302-2.96-3.302z" fill="#008B86"/><path d="M1104.69 613.844l-6.04-.441.03-.54 6.04.455-.03.526zm5.52.698l-.38-.299c.34-.541.91-.868 1.49-.868s1.13.313 1.47.825l-.38.313c-.26-.384-.65-.612-1.09-.612-.44-.014-.85.228-1.11.641z" fill="#008B86"/><path d="M1098.26 611.639c.09.171.16.341.22.526.07.257.11.513.21.755.18.427.55.697.93.911.34.185.69.327 1.06.327.51-.014 1.01-.342 1.3-.811.78-1.238.03-2.747.21-4.113.02-.214.09-.456.27-.541.25-.114.49.171.66.413.41.597.91 1.167 1.52 1.48.61.327 1.38.37 1.96-.029.41-.284.7-.754.87-1.252a6.55 6.55 0 00.34-1.694c.04-.626-.19-1.252-.1-1.878.04-.271.17-.541.39-.655 1.41-.797 2.6 3.188 2.99 4.084.36.812 1.18 1.58 1.87.627.47-.655.43-1.708.53-2.491.16-1.153.75-.171.97.299.58 1.238 1.18 2.775 2.44 3.302.18.071.36.128.55.114.23-.015.44-.114.64-.242.67-.441 1.11-1.224 1.32-2.05.22-.825.22-1.708.19-2.576-.07-1.964-.29-4.426-1.6-5.892-.82-.925-1.97-1.366-3.09-1.693-2.4-.698-4.95-.968-7.38-.356-4.22 1.067-7.65 4.782-9.44 9.179-.44 1.096-.74 2.278-.27 3.445.15.284.3.54.44.811z" fill="#000"/><path d="M1116.9 637.854l-3.65-1.224c-1.67 3.003-4.34 4.953-7.35 4.953-2.92 0-5.51-1.836-7.18-4.696h-.05l-9.25 3.501 3.37 99.98 38.4-12.752-14.29-89.762z" fill="#fff"/><path d="M1115.78 637.584s3.4 55.021 8.63 84.681c1.69 9.564 7.48 17.733 15.62 21.277 24.31 10.589 29.37-35.708 29.37-35.708l-18.54 4.184-2.77-31.012s6.63 4.412 19.23 0c0 0-4.08-28.464-6.24-44.589.03 0-23.37 6.575-45.3 1.167z" fill="#FFBA15" stroke="#000" stroke-width=".332" stroke-miterlimit="10"/><path d="M1133.18 642.835l-5.63-3.116.28-.641 5.63 3.117-.28.64zm12.18 11.657l-2.33-5.807.57-.299 2.34 5.821-.58.285zm8.03-12.083l-3.55-5.081.5-.427 3.55 5.067-.5.441zm11.57.156l-3.06-.996.18-.683 3.06.996-.18.683zm-4.34-10.546l-2.6-6.02.57-.313 2.61 6.034-.58.299zm-19.97-3.672l-.2-6.063.63-.028.21 6.077-.64.014zm-11.25 27.81l-.61-.228 1.7-5.679.61.228-1.7 5.679zm9.01 13.535l-.63-.1.72-5.579.64.1-.73 5.579zm-14.55-2.218l-.53.396 3.22 5.356.53-.396-3.22-5.356zm-4.67 9.563l-1.89 5.732.6.245 1.89-5.733-.6-.244zm-8.32-10.185l-1.19 6.106.63.151 1.18-6.106-.62-.151zm1.56-6.013l-.44.513 4.47 4.794.44-.512-4.47-4.795zm5.35-5.479l-.86-6.262.63-.114.87 6.263-.64.113zm-8.45-20.016l-.51.438 3.22 4.599.51-.437-3.22-4.6zm31.12 42.031l-.61.201.98 3.726.62-.201-.99-3.726zm34.64-11.697l-1-3.729.62-.199.99 3.729-.61.199zm-24.71-3.017l-.48.46 3.38 4.453.48-.459-3.38-4.454zm17.04 12.239l-3.67-3.316.39-.555 3.68 3.316-.4.555zm-4.9-12.979l-1.95-7.415.6-.199 1.97 7.415-.62.199zm-46.59 58.536l-3.06-.996.18-.683 3.06.996-.18.683zm-4.34-10.546l-2.59-6.02.58-.313 2.59 6.035-.58.298zm6.8 42.882l-3.67-3.316.39-.555 3.68 3.316-.4.555zm-4.88-12.98l-1.97-7.415.61-.199 1.95 7.415-.59.199zm36.27-44.461l-5.63-3.116.28-.627 5.63 3.103-.28.64zm12.18 11.671l-2.33-5.821.57-.285 2.34 5.807-.58.299zm8.03-12.097l-3.55-5.067.5-.441 3.54 5.081-.49.427zm11.57.17l-3.06-1.01.17-.669 3.07.996-.18.683zm-4.34-10.546l-2.59-6.034.56-.313 2.6 6.034-.57.313zm-19.97-3.672l-.2-6.077.62-.029.22 6.078-.64.028zM1146 708.673l-.61-.227 1.69-5.679.62.228-1.7 5.678zm9.01 13.55l-.63-.1.72-5.593.64.099-.73 5.594zm-14.59-2.258l-.53.396 3.23 5.368.53-.396-3.23-5.368zm-4.65 9.598l-1.89 5.732.6.245 1.89-5.732-.6-.245zm-8.27-10.167l-1.19 6.106.62.151 1.19-6.106-.62-.151zm1.53-6.028l-.45.513 4.47 4.794.45-.512-4.47-4.795zm5.35-5.491l-.86-6.262.63-.1.87 6.262-.64.1zm-22.44-12.795l-.86-6.262.63-.114.86 6.262-.63.114zm11.76 10.703l-4.77-3.644.36-.583 4.77 3.643-.36.584zm2.23-17.924l-.5.438 3.22 4.599.5-.438-3.22-4.599zm31.13 42.022l-.62.201.99 3.726.61-.201-.98-3.726zm9.92-14.716l-.49.46 3.38 4.453.49-.459-3.38-4.454zm17.04 12.25l-3.67-3.301.39-.555 3.68 3.301-.4.555zm-4.9-12.98l-1.96-7.415.61-.199 1.96 7.415-.61.199z" fill="#fff"/><path d="M1095.07 638.225s10.73 75.103 8.71 99.254c-2.87 34.271-37.6 24.75-37.6 24.75l5.86-77.565s-7.02 7.543-20.17 6.248c0 0-1.15-32.051-2.16-48.318 0 0 17.12 3.416 34.58-1.11 3.62-.911 7.07-1.893 10.78-3.259z" fill="#FFBA15" stroke="#000" stroke-width=".332" stroke-miterlimit="10"/><path d="M1061.57 661.665l5.61 3.103m10 6.02l2.34 5.821m4.44-17.235l3.54 5.066m8.35-.953l3.07.996m-6.73-16.381l2.59 6.02m-19.95-3.53l-.2-6.063m-11.66 33.773l1.7-5.693m7.29 19.299l.73-5.594m-12.03 8.967l-3.23-5.365m-5.97 15.214l1.88-5.75m-9.48-4.057l1.18-6.105m1.05-5.878l4.48 4.797m3.75-12.198l-3.22-4.639m-14.72.284l4.77 3.644m11.77-26.087l3.21 4.597m18.88 49.712l-.98-3.728m9.95-14.574l3.38 4.455m10.45 3.97l3.68 3.302m-4.79-12.795l-1.96-7.414m32.95-37.26l5.63 3.102m9.99 6.02l2.35 5.821m4.44-17.234l3.53 5.081m8.36-.968l3.06.995m-6.74-16.38l2.59 6.034m-19.93-3.53l-.21-6.077m-11.66 33.773l1.69-5.679m7.3 19.285l.73-5.593m-12.03 8.966l-3.22-5.366m-5.98 15.214l1.89-5.735m-9.48-4.07l1.18-6.106m1.05-5.877l4.47 4.796m1.4-10.575l-.86-6.262m-14.73.285l4.77 3.657m1.8-17.406l3.21 4.597m28.86 41.017l-.98-3.729m35.23-11.884l-1-3.728m-24.29 1.039l3.38 4.454m10.45 3.971l3.69 3.302m-4.8-12.795l-1.97-7.415m-82.2 62.892l5.63 3.103m10 6.02l2.34 5.821m4.44-17.235l3.54 5.066m8.35-.953l3.06.996m-6.74-16.381l2.61 6.02m-19.95-3.53l-.2-6.062m-11.68 33.773l1.7-5.693m7.31 19.298l.72-5.593m-12.03 8.966l-3.22-5.365m-5.98 15.214l1.89-5.75m-9.48-4.055l1.18-6.106m1.05-5.878l4.47 4.796m1.4-10.575l-.86-6.262m-14.72.285l4.76 3.643m1.8-17.391l3.21 4.597m28.86 41.017l-.98-3.729m9.95-14.574l3.37 4.455m10.46 3.971l3.68 3.301m-4.8-12.794l-1.95-7.415m32.44-40.377l5.63 3.117m9.99 6.02l2.34 5.821m4.44-17.249l3.55 5.081m8.35-.968l3.06 1.01m-6.74-16.395l2.59 6.035m-19.93-3.53l-.2-6.077m-11.68 33.773l1.7-5.679m7.3 19.285l.73-5.579m-12.03 8.966l-3.22-5.365m-5.98 15.199l1.88-5.736m-9.48-4.07l1.19-6.105m1.05-5.864l4.46 4.797m1.41-10.589l-.86-6.262m-21.59-6.533l-.85-6.262m7.71 13.079l4.77 3.658m1.8-17.406l3.21 4.597m28.86 41.017l-.98-3.729m9.94-14.56l3.38 4.441m10.45 3.971l3.69 3.316m-4.8-12.809l-1.97-7.415" stroke="#fff" stroke-width=".499" stroke-miterlimit="10"/><path d="M1070.04 710.524l51.8-72.783 7.95 1.594-60.45 84.909.7-13.72z" fill="#444FE4"/><path d="M1066.95 711.122l9.82 12.14m-7.86-15.158l9.83 12.14m-7.85-15.157l9.83 12.14m-7.86-15.157l9.83 12.154m-7.86-15.157l9.83 12.14m-7.85-15.157l9.83 12.14m-7.86-15.158l9.82 12.154m-7.85-15.157l9.83 12.14m-7.85-15.157l9.83 12.14m-7.86-15.157l9.82 12.154m-7.85-15.157l9.83 12.14m-7.86-15.157l9.84 12.14m-7.86-15.158l9.82 12.154m-7.85-15.157l9.83 12.14m-7.86-15.157l9.82 12.14m-7.84-15.157l9.82 12.14m-7.86-15.157l9.84 12.154m-7.86-15.157l9.82 12.14m-7.84-15.158l9.82 12.14m-7.86-15.157l9.83 12.154m-7.85-15.157l9.82 12.14m-7.86-15.157l9.84 12.14m-7.86-15.157l9.83 12.154m-7.85-15.157l9.82 12.14m-7.86-15.157l9.83 12.14m-7.85-15.157l9.83 12.154m-7.86-15.157l9.83 12.14m-7.86-15.157l9.83 12.14" stroke="#000" stroke-width=".373" stroke-miterlimit="10"/><path d="M1114.74 647.917c9.2 8.211 9.62 24.65.95 36.747-8.68 12.083-23.16 15.228-32.35 7.016" fill="#5B66F7"/><path d="M1098.67 683.056c.52-.655 12.03-16.893 12.03-16.893z" fill="#008B86"/><path d="M1098.67 683.056c.52-.655 12.03-16.893 12.03-16.893" stroke="#000" stroke-width=".332" stroke-miterlimit="10"/><path d="M1110.3 667.201l.28 4.384 2.62-1.11-2.44-3.871-.46.597z" fill="#000" stroke="#000" stroke-width=".195" stroke-miterlimit="10"/><path d="M1111.77 648.357c8.27 7.373 8.65 22.16.85 33.033-7.79 10.859-20.8 13.692-29.07 6.305" stroke="#000" stroke-width=".332" stroke-miterlimit="10"/><path d="M556.519 882.492l.029-3.273c2.053.045 4.085-.332 6.095-1.099l.929 3.101a19.04 19.04 0 01-7.053 1.271zm-7.089-1.646c-2.181-1.021-4.18-2.523-6.027-4.444l2.01-2.388c1.562 1.655 3.305 2.926 5.141 3.809l-1.124 3.023zm20.485-3.247l-1.66-2.695c1.642-1.261 3.32-2.845 4.914-4.658l2.071 2.315c-1.712 1.94-3.507 3.651-5.325 5.038zm123.217 2.311a94.947 94.947 0 01-6.791-.473l.26-3.268c2.195.21 4.421.356 6.618.469l-.087 3.272zm6.798.085l-.058-3.276c2.2-.049 4.43-.162 6.632-.341l.203 3.279c-2.26.177-4.519.29-6.777.338zm-20.344-1.419c-2.251-.373-4.471-.779-6.69-1.281l.577-3.197a90.2 90.2 0 006.546 1.246l-.433 3.232zm33.876.321l-.377-3.25c2.204-.309 4.381-.682 6.559-1.121l.522 3.221a144.32 144.32 0 01-6.704 1.15zm-47.22-3.304a118.205 118.205 0 01-6.531-2.089l.894-3.125c2.099.759 4.228 1.422 6.387 2.053l-.75 3.161zm60.607.55l-.668-3.192a105.97 105.97 0 006.4-1.934l.842 3.13a81.2 81.2 0 01-6.574 1.996zm-187.82-5.997a31.794 31.794 0 01-2.677-7.354l2.821-.845a27.533 27.533 0 002.402 6.536l-2.546 1.663zm114.274.851a100.23 100.23 0 01-6.285-2.926l1.21-2.988a117.182 117.182 0 006.112 2.857l-1.037 3.057zm86.585.796l-.988-3.07c2.069-.83 4.14-1.757 6.182-2.717l1.162 3.008c-2.13.991-4.229 1.918-6.356 2.779zm-160.146-5.132l-2.338-1.964a66.851 66.851 0 003.667-6.112l2.487 1.708a69.787 69.787 0 01-3.816 6.368zm61.143-1.934c-1.174-.706-2.377-1.414-3.521-2.152-.802-.504-1.602-1.04-2.403-1.576l1.496-2.821a61.6 61.6 0 002.346 1.543c1.144.738 2.29 1.412 3.435 2.118l-1.353 2.888zm111.492 1.082l-1.309-2.914a124.084 124.084 0 005.849-3.503l1.454 2.853a143.658 143.658 0 01-5.994 3.564zm-123.16-8.859a234.229 234.229 0 01-5.597-4.208l1.638-2.687c1.856 1.402 3.684 2.804 5.569 4.174l-1.61 2.721zm-93.739-2.055c.048-2.69.441-5.307 1.178-7.723l2.82.873c-.706 2.286-1.035 4.548-1.077 6.914l-2.921-.064zm51.439-1.304l-2.607-1.516a227.895 227.895 0 002.983-6.711l2.636 1.452c-.966 2.281-1.989 4.528-3.012 6.775zm31.165-5.12a235.413 235.413 0 00-5.539-4.207l1.61-2.72c1.856 1.402 3.712 2.837 5.568 4.239l-1.639 2.688zm-75.775-6.719l-2.427-1.836a32.162 32.162 0 014.589-5.962l1.983 2.41a30.69 30.69 0 00-4.145 5.388zm50.435-1.844l-2.668-1.323c.88-2.283 1.759-4.566 2.581-6.882a58.877 58.877 0 00-3.417-1.501l1.009-3.058a76.115 76.115 0 016.313 2.959l-1.238 2.955c-.85 2.284-1.701 4.599-2.58 6.85zm14.202.278c-.772-.535-1.544-1.071-2.316-1.574a128.014 128.014 0 00-3.405-2.182l1.41-2.855c1.173.739 2.347 1.478 3.49 2.249.801.536 1.573 1.072 2.345 1.608l-1.524 2.754zm-55.352-8.151l-1.513-2.789a36.476 36.476 0 016.28-3.396l1.046 3.07a32.146 32.146 0 00-5.813 3.115zm31.377-4.013a46.964 46.964 0 00-6.428-1.373l.375-3.234c2.223.308 4.5.812 6.774 1.445l-.721 3.162zm-19.337-1.105l-.551-3.222a34.26 34.26 0 015.395-.724l1.534-.064.029 3.275c-.463.023-.955.012-1.419.066a33.004 33.004 0 00-4.988.669zm34.132-1.067l-2.758-1.131c.765-2.35 1.472-4.701 2.179-7.052l2.788 1.034a342.698 342.698 0 01-2.209 7.149zm4.218-14.432l-2.79-.937a286.197 286.197 0 001.776-7.223l2.822.807a385.152 385.152 0 01-1.808 7.353zm3.412-14.644l-2.852-.744c.506-2.42.954-4.874 1.374-7.329l2.882.614c-.449 2.519-.926 4.973-1.404 7.459zm2.577-14.89l-2.885-.517c.362-2.456.695-4.913.97-7.403l2.886.42a212.355 212.355 0 01-.971 7.5zm1.769-15.037l-2.916-.323c.217-2.492.405-4.951.565-7.444l2.918.226c-.131 2.526-.32 5.05-.567 7.541zm.961-15.119l-2.92-.129c.059-1.717.119-3.466.149-5.184l.041-2.301 2.921.032-.041 2.333c-.03 1.75-.09 3.5-.15 5.249zm-2.773-15.072a208.94 208.94 0 00-.244-7.462l2.925-.163c.1 2.531.2 5.062.242 7.592l-2.923.033zm-.662-14.96a322.67 322.67 0 00-.65-7.439l2.9-.358c.245 2.502.461 5.036.648 7.536l-2.898.261zm-1.503-14.849a204.863 204.863 0 00-1.056-7.383l2.874-.553c.39 2.505.751 4.977 1.054 7.48l-2.872.456zm-2.287-14.737a200.14 200.14 0 00-1.463-7.294l2.85-.781c.535 2.444 1.013 4.918 1.49 7.392l-2.877.683zm-3.129-14.528a286.529 286.529 0 00-1.87-7.174l2.795-.976c.652 2.414 1.304 4.827 1.897 7.272l-2.822.878zm-3.944-14.287c-.74-2.35-1.479-4.701-2.278-7.02l2.741-1.172a284.108 284.108 0 012.305 7.118l-2.768 1.074z" fill="#F4D3A1" fill-opacity=".8"/><path d="M587.537 670.526l2.698 1.259 5.557-14.889 12.863 7.317 1.324-2.921-15.67-8.903-6.772 18.137zM1643.59 873.503l-.27-3.26c-2.04.237-4.1.051-6.16-.525l-.69 3.176c2.36.672 4.76.85 7.12.609zm6.94-2.303c2.1-1.22 3.98-2.905 5.67-4.991l-2.18-2.192c-1.43 1.796-3.07 3.224-4.83 4.276l1.34 2.907zm-20.65-1.322l1.45-2.841c-1.73-1.103-3.52-2.525-5.25-4.182l-1.89 2.5c1.85 1.773 3.77 3.311 5.69 4.523zm-122.61 13.812c2.24-.292 4.5-.652 6.73-1.106l-.51-3.233c-2.17.415-4.38.768-6.56 1.086l.34 3.253zm-6.77.719l-.19-3.27c-2.2.157-4.43.252-6.63.28l.04 3.286c2.26-.034 4.52-.133 6.78-.296zm20.16-3.314c2.22-.582 4.4-1.194 6.57-1.902l-.81-3.132c-2.12.702-4.27 1.31-6.43 1.853l.67 3.181zm-33.73 3.484l.13-3.274c-2.22-.102-4.41-.271-6.62-.504l-.28 3.258c2.24.23 4.49.393 6.77.52zm46.81-7.703a121.33 121.33 0 006.35-2.691l-1.13-3.031c-2.03.953-4.1 1.812-6.21 2.642l.99 3.08zm-60.36 6.209l.43-3.243c-2.19-.366-4.38-.829-6.52-1.33l-.61 3.198a80.84 80.84 0 006.7 1.375zm186.71-23.519c1-2.397 1.72-4.957 2.12-7.577l-2.88-.58a27.723 27.723 0 01-1.9 6.739l2.66 1.418zm-113.8 11.522c2.02-1.082 4.06-2.263 6.04-3.503l-1.43-2.865a119.518 119.518 0 01-5.88 3.418l1.27 2.95zm-86.23 8.88l.76-3.151c-2.13-.634-4.26-1.365-6.37-2.131l-.93 3.106c2.2.789 4.36 1.516 6.54 2.176zm159.2-20.071l2.18-2.176a65.788 65.788 0 01-4.11-5.748l-2.35 1.934a69.382 69.382 0 004.28 5.99zm-61.07 3.783c1.12-.814 2.26-1.631 3.35-2.473.76-.577 1.51-1.187 2.27-1.796l-1.7-2.67c-.73.606-1.46 1.179-2.22 1.756-1.09.843-2.18 1.621-3.27 2.431l1.57 2.752zm-111.02 11.492l1.09-3.027c-2.04-.905-4.08-1.906-6.1-2.944l-1.23 2.978c2.04 1.034 4.15 2.062 6.24 2.993zm122.06-20.332c1.78-1.542 3.52-3.113 5.26-4.716l-1.83-2.524c-1.74 1.57-3.46 3.138-5.24 4.68l1.81 2.56zm93.26-10.802c-.25-2.676-.84-5.248-1.76-7.586l-2.74 1.133c.87 2.212 1.37 4.436 1.59 6.789l2.91-.336zm-51.36 3.504l2.49-1.754a204.658 204.658 0 01-3.48-6.408l-2.52 1.693a288.69 288.69 0 003.51 6.469zm-31.44-2.191a228.1 228.1 0 015.21-4.709l-1.81-2.561c-1.75 1.571-3.49 3.174-5.23 4.745l1.83 2.525zm75.01-13.772l2.28-2.057a31.59 31.59 0 00-5.02-5.512l-1.8 2.587a30.154 30.154 0 014.54 4.982zm-50.4 2.872l2.56-1.567c-1.05-2.193-2.1-4.385-3.09-6.617 1.1-.649 2.21-1.266 3.29-1.815l-1.23-2.953c-2 1.046-4.04 2.228-6.07 3.538l1.46 2.83c1.01 2.196 2.04 4.424 3.08 6.584zm-14.13 1.604c.73-.606 1.46-1.211 2.19-1.785 1.06-.839 2.14-1.682 3.23-2.492l-1.62-2.713c-1.12.846-2.23 1.692-3.31 2.567-.76.609-1.49 1.215-2.22 1.821l1.73 2.602zm54.54-13.292l1.3-2.921a35.467 35.467 0 00-6.51-2.797l-.81 3.157c2.09.637 4.12 1.51 6.02 2.561zm-31.56-1.069c2.1-.83 4.22-1.467 6.3-1.968l-.62-3.188c-2.19.515-4.42 1.23-6.64 2.073l.96 3.083zm19.18-2.907l.31-3.261a34.122 34.122 0 00-5.43-.219l-1.53.08.21 3.266c.47-.021.96-.077 1.42-.066 1.65-.061 3.35.003 5.02.2zm-34.09 2.125l2.66-1.384c-.93-2.271-1.82-4.548-2.7-6.824l-2.7 1.29c.89 2.309 1.8 4.615 2.74 6.918zm-5.29-13.988l2.71-1.194c-.79-2.319-1.57-4.673-2.31-7.032l-2.75 1.069c.78 2.451 1.55 4.806 2.35 7.157zm-4.49-14.274l2.78-1.007c-.68-2.365-1.32-4.768-1.92-7.175l-2.82.881c.63 2.468 1.29 4.869 1.96 7.301zm-3.69-14.596l2.84-.785c-.55-2.414-1.07-4.831-1.53-7.287l-2.84.688c.46 2.489.98 4.938 1.53 7.384zm-2.89-14.819l2.88-.595c-.4-2.462-.78-4.896-1.12-7.365l-2.89.498c.32 2.505.7 5.003 1.13 7.462zm-2.09-14.977l2.9-.401a295.67 295.67 0 01-.54-5.152l-.21-2.289-2.91.305.21 2.321c.16 1.741.35 3.479.55 5.216zm1.63-15.277c-.15-2.493-.26-4.989-.32-7.459l-2.93.111c.09 2.531.18 5.063.33 7.588l2.92-.24zm-.47-14.97c.01-2.477.03-4.99.09-7.473l-2.91-.086c-.06 2.516-.08 5.061-.08 7.57l2.9-.011zm.39-14.937c.12-2.491.29-4.988.5-7.456l-2.91-.282c-.2 2.532-.37 5.029-.49 7.552l2.9.186zm1.17-14.899c.26-2.475.56-4.953.91-7.405l-2.9-.512c-.35 2.485-.64 4.995-.93 7.505l2.92.412zm2.03-14.769c.41-2.46.85-4.89 1.32-7.323l-2.85-.712c-.47 2.466-.94 4.931-1.35 7.423l2.88.612zm2.86-14.605c.56-2.412 1.12-4.823 1.74-7.209l-2.82-.912c-.62 2.418-1.2 4.865-1.76 7.309l2.84.812z" fill="#F4D3A1" fill-opacity=".8"/><path d="M1596.77 665.179l-2.59 1.506-6.66-14.317-12.26 8.493-1.54-2.788 14.94-10.335 8.11 17.441z" fill="#F4D3A1" fill-opacity=".8"/><path d="M1632.67 523.932c-2.07-11.111-5.67-21.404-11.78-30.527-.83-1.236-.71-2.328-.22-3.612 1.59-4.164 2.45-8.538 3.06-12.995 1.84-13.435.83-26.644-2.29-39.717-4.49-18.829-10.88-36.745-20.68-52.991-.99-1.64-1.14-3.095-.61-5.006 1.77-6.43 1.98-12.92.27-19.459-2.86-10.967-6.79-21.432-11.59-31.508-8.36-17.556-20.11-31.706-34.84-42.814-9.8-7.391-20.13-13.809-30.45-20.257-2.86-1.79-5.75-3.542-8.63-5.311.07-.222.14-.447.2-.668 1.77.07 3.55.116 5.32.218 1.19.066 2.34-.098 3.39-.699 1.76-.999 1.92-2.964.38-4.326-.86-.767-1.93-1.024-2.98-1.275-4.47-1.057-9.01-1.684-13.53-2.419a38.37 38.37 0 00-4.01-.414c-2.06-.109-3.69.811-4.67 2.857-.95 1.967-.22 3.638.88 5.23 3.11 4.516 5.79 9.35 8.56 14.124 1.21 2.095 2.42 4.198 3.65 6.282.56.962 1.28 1.795 2.42 1.381 1.23-.446 1.45-1.671 1.41-2.923-.01-.586-.2-1.173-.33-1.751-.55-2.326-1.44-4.505-2.32-6.691-.42-1.05-1.14-1.984-1.3-3.285.75-.115 1.16.286 1.6.588 13.01 8.999 26.22 17.646 38.64 27.684 6.99 5.652 13.34 12.07 18.87 19.471 10.67 14.27 17.54 30.745 22.44 48.324.97 3.48 1.39 7.131.64 11.34-.96-1.386-1.67-2.374-2.34-3.396-4.99-7.674-11.08-14.112-18.02-19.538-7.1-5.563-14.92-8.452-23.74-7.728-8.82.724-12.94 9.509-12.34 16.795.39 4.761 1.7 9.179 3.98 13.214 5.95 10.522 14.2 17.821 24.81 21.781 9.14 3.408 17.83 2.245 26.13-3.098 2.18-1.404 2.28-1.36 3.69 1.197 5.71 10.429 10.37 21.398 13.8 33.02 2.5 8.447 4.73 16.964 6.06 25.729 1.55 10.247 1.06 20.476-.71 30.647-.15.836-.15 1.807-.9 2.394-.85-.033-1.22-.797-1.68-1.367-2.2-2.768-4.58-5.338-7.05-7.799-4.4-4.398-9.42-7.635-15.19-9.224-10.21-2.821-17.14 2.181-19.46 13.625-2.71 13.282 6.42 27.374 17.67 28.657 5.65.646 11.07.165 16.33-2.301 3.41-1.6 6.54-3.711 9.36-6.376 1.01-.954 1.68-.815 2.37.398 1.53 2.698 3.02 5.421 4.33 8.265 2.81 6.095 4.33 12.648 5.61 19.295 2.08 10.784 2.41 21.601-.07 32.33-3.79 16.448-17.74 28.625-34.16 26.339-1.44-.2-2.84-.423-4.02-1.481-.58-.515-1.26-.983-1.86-.09-.55.796-.11 1.528.34 2.16 1.13 1.576 2.74 2.193 4.42 2.64 5.06 1.365 10.19 1.372 15.17-.179 14.01-4.373 22.77-14.641 26.15-30.326 2.47-11.44 1.96-22.929-.18-34.434zm-43.08-139.715c-2.27 1.969-6.77 3.766-11.1 4.342-2.08.439-4.48.201-6.85-.408-10.55-2.704-18.75-9.162-24.52-19.341-2.03-3.59-3.28-7.546-2.98-11.88.31-4.505 2.43-6.95 6.47-7.255 6.4-.482 12.18 1.658 17.5 5.52 7.37 5.354 13.36 12.277 18.47 20.19 1.2 1.86 2.42 3.715 3.54 5.632.96 1.64.85 2.002-.53 3.2zm20.31 109.066c-4.04 4.023-8.8 6.382-14.29 7.46-2.34.012-4.83.092-7.32-.39-6.34-1.231-12.56-10.319-10.91-19.29 1.42-7.737 4.75-10.297 11.66-8.604 3.65.893 6.88 2.777 9.88 5.195 4.23 3.411 7.76 7.651 11.21 11.962 1.38 1.716 1.33 2.113-.23 3.667zM562.052 523.932c2.066-11.111 5.667-21.404 11.782-30.527.831-1.236.704-2.328.216-3.612-1.584-4.164-2.444-8.538-3.055-12.995-1.844-13.435-.829-26.644 2.287-39.717 4.491-18.829 10.876-36.745 20.681-52.991.988-1.64 1.136-3.095.611-5.006-1.769-6.43-1.986-12.92-.277-19.459 2.864-10.967 6.799-21.432 11.595-31.508 8.361-17.556 20.11-31.706 34.838-42.814 9.8-7.391 20.136-13.809 30.451-20.257 2.866-1.79 5.752-3.542 8.626-5.311-.066-.222-.133-.447-.196-.668-1.772.07-3.545.116-5.317.218-1.188.066-2.338-.098-3.396-.699-1.752-.999-1.92-2.964-.378-4.326.867-.767 1.929-1.024 2.984-1.275 4.473-1.057 9.011-1.684 13.529-2.419a38.416 38.416 0 014.011-.414c2.061-.109 3.686.811 4.673 2.857.946 1.967.216 3.638-.882 5.23-3.108 4.516-5.796 9.35-8.564 14.124-1.214 2.095-2.421 4.198-3.648 6.282-.565.962-1.283 1.795-2.423 1.381-1.231-.446-1.451-1.671-1.411-2.923.018-.586.202-1.173.337-1.751.547-2.326 1.44-4.505 2.316-6.691.421-1.05 1.139-1.984 1.303-3.285-.749-.115-1.163.286-1.599.588-13.012 8.999-26.226 17.646-38.64 27.684-6.992 5.652-13.34 12.07-18.876 19.471-10.67 14.27-17.533 30.745-22.437 48.324-.972 3.48-1.394 7.131-.638 11.34.954-1.386 1.668-2.374 2.333-3.396 4.995-7.674 11.081-14.112 18.021-19.538 7.108-5.563 14.92-8.452 23.742-7.728 8.819.724 12.942 9.509 12.341 16.795-.394 4.761-1.703 9.179-3.982 13.214-5.949 10.522-14.197 17.821-24.809 21.781-9.139 3.408-17.831 2.245-26.126-3.098-2.181-1.404-2.286-1.36-3.688 1.197-5.717 10.429-10.373 21.398-13.806 33.02-2.497 8.447-4.73 16.964-6.056 25.729-1.553 10.247-1.061 20.476.708 30.647.147.836.151 1.807.901 2.394.851-.033 1.221-.797 1.674-1.367 2.203-2.768 4.583-5.338 7.051-7.799 4.406-4.398 9.421-7.635 15.19-9.224 10.216-2.821 17.14 2.181 19.468 13.625 2.704 13.282-6.426 27.374-17.676 28.657-5.644.646-11.068.165-16.324-2.301a35.423 35.423 0 01-9.369-6.376c-1.006-.954-1.677-.815-2.363.398-1.535 2.698-3.021 5.421-4.332 8.265-2.812 6.095-4.335 12.648-5.615 19.295-2.079 10.784-2.405 21.601.069 32.33 3.794 16.448 17.747 28.625 34.169 26.339 1.432-.2 2.838-.423 4.021-1.481.576-.515 1.251-.983 1.858-.09.544.796.111 1.528-.342 2.16-1.127 1.576-2.746 2.193-4.416 2.64-5.068 1.365-10.196 1.372-15.175-.179-14.009-4.373-22.767-14.641-26.146-30.326-2.471-11.44-1.963-22.929.176-34.434zm43.08-139.715c2.273 1.969 6.767 3.766 11.097 4.342 2.082.439 4.484.201 6.856-.408 10.546-2.704 18.743-9.162 24.513-19.341 2.037-3.59 3.28-7.546 2.982-11.88-.307-4.505-2.426-6.95-6.468-7.255-6.396-.482-12.183 1.658-17.5 5.52-7.371 5.354-13.359 12.277-18.47 20.19-1.203 1.86-2.415 3.715-3.537 5.632-.964 1.64-.857 2.002.527 3.2zm-20.314 109.066c4.044 4.023 8.809 6.382 14.297 7.46 2.333.012 4.829.092 7.316-.39 6.339-1.231 12.566-10.319 10.915-19.29-1.421-7.737-4.757-10.297-11.667-8.604-3.645.893-6.876 2.777-9.875 5.195-4.231 3.411-7.758 7.651-11.216 11.962-1.375 1.716-1.331 2.113.23 3.667z" fill="#F4D3A1"/></svg>