<svg xmlns="http://www.w3.org/2000/svg" width="140" height="153" fill="none"><g filter="url(#filter0_d_7_12491)"><rect x="30" width="80" height="80" rx="8" fill="#F4ECE0"/><rect x="32" y="2" width="76" height="76" rx="6" stroke="#fff" stroke-width="4"/></g><path d="M78.695 23.89l-8.313-2.826a1.172 1.172 0 00-.764 0l-8.313 2.826a1.186 1.186 0 00-.805 1.126v6.363c0 7.766 8.666 11.537 9.037 11.697a1.162 1.162 0 00.926 0c.37-.16 9.037-3.933 9.037-11.7v-6.36c0-.51-.323-.962-.805-1.126zm-3.491 6.004l-4.354 5.541a1.583 1.583 0 01-2.275.226l-2.772-2.375a1.58 1.58 0 01-.17-2.233 1.58 1.58 0 012.23-.17l1.517 1.299 3.335-4.242a1.583 1.583 0 012.489 1.954z" fill="#FD907E"/><path d="M86.23 27.334h-3.562V30.5h3.166v17.416H54.166V30.5h3.166v-3.166h-3.563A2.782 2.782 0 0051 30.104v21.374c0 1.52 1.25 2.772 2.77 2.772h12.126c-.185.793-.68 2.08-1.997 3.398a.79.79 0 00.56 1.352h11.084a.794.794 0 00.56-1.351c-1.315-1.316-1.82-2.604-2.018-3.4h12.146A2.781 2.781 0 0089 51.48V30.102c0-1.52-1.25-2.769-2.77-2.769z" fill="#FF733B"/><defs><filter id="filter0_d_7_12491" x="0" y="0" width="140" height="153" filterUnits="userSpaceOnUse" color-interpolation-filters="sRGB"><feFlood flood-opacity="0" result="BackgroundImageFix"/><feColorMatrix in="SourceAlpha" values="0 0 0 0 0 0 0 0 0 0 0 0 0 0 0 0 0 0 127 0" result="hardAlpha"/><feOffset dy="43"/><feGaussianBlur stdDeviation="15"/><feComposite in2="hardAlpha" operator="out"/><feColorMatrix values="0 0 0 0 0.6875 0 0 0 0 0.0997409 0 0 0 0 0 0 0 0 0.08 0"/><feBlend in2="BackgroundImageFix" result="effect1_dropShadow_7_12491"/><feBlend in="SourceGraphic" in2="effect1_dropShadow_7_12491" result="shape"/></filter></defs></svg>