<svg xmlns="http://www.w3.org/2000/svg" width="140" height="153" fill="none"><g filter="url(#filter0_d_7_12501)"><rect x="30" width="80" height="80" rx="8" fill="#E3F8FA"/><rect x="32" y="2" width="76" height="76" rx="6" stroke="#fff" stroke-width="4"/></g><path d="M88.195 31.806l-8.313-2.826a1.172 1.172 0 00-.764 0l-8.313 2.826A1.189 1.189 0 0070 32.932v6.363c0 7.766 8.666 11.538 9.037 11.697a1.162 1.162 0 00.926 0c.37-.16 9.037-3.933 9.037-11.7V32.93c0-.506-.323-.96-.805-1.124zm-3.491 6.004l-4.354 5.541a1.584 1.584 0 01-2.275.226l-2.772-2.375a1.584 1.584 0 012.062-2.404l1.517 1.3 3.335-4.242a1.583 1.583 0 112.487 1.954z" fill="#8CE1EB"/><path d="M76.334 26.588v-.838a4.764 4.764 0 00-4.75-4.75H55.75A4.764 4.764 0 0051 25.75v28.5A4.764 4.764 0 0055.75 59h15.834a4.764 4.764 0 004.75-4.75v-1.045a21.945 21.945 0 01-3.166-2.107v1.568h-19V25.75c0-.872.713-1.584 1.584-1.584h15.834c.872 0 1.585.712 1.585 1.584v1.917l3.163-1.079z" fill="#26C6DA"/><defs><filter id="filter0_d_7_12501" x="0" y="0" width="140" height="153" filterUnits="userSpaceOnUse" color-interpolation-filters="sRGB"><feFlood flood-opacity="0" result="BackgroundImageFix"/><feColorMatrix in="SourceAlpha" values="0 0 0 0 0 0 0 0 0 0 0 0 0 0 0 0 0 0 127 0" result="hardAlpha"/><feOffset dy="43"/><feGaussianBlur stdDeviation="15"/><feComposite in2="hardAlpha" operator="out"/><feColorMatrix values="0 0 0 0 0 0 0 0 0 0.37037 0 0 0 0 0.416667 0 0 0 0.08 0"/><feBlend in2="BackgroundImageFix" result="effect1_dropShadow_7_12501"/><feBlend in="SourceGraphic" in2="effect1_dropShadow_7_12501" result="shape"/></filter></defs></svg>