<svg xmlns="http://www.w3.org/2000/svg" width="140" height="153" fill="none"><g filter="url(#filter0_d_7_12481)"><rect x="30" width="80" height="80" rx="8" fill="#F5E6FE"/><rect x="32" y="2" width="76" height="76" rx="6" stroke="#fff" stroke-width="4"/></g><path d="M78.695 39.725l-8.313-2.827a1.172 1.172 0 00-.764 0l-8.313 2.827a1.186 1.186 0 00-.805 1.123v6.363c0 7.766 8.666 11.537 9.037 11.697a1.204 1.204 0 00.926-.003c.37-.157 9.037-3.93 9.037-11.694v-6.363c0-.508-.323-.96-.805-1.123zm-3.491 6.004l-4.354 5.54a1.584 1.584 0 01-2.277.226L65.8 49.12a1.58 1.58 0 01-.171-2.232 1.581 1.581 0 012.23-.171l1.518 1.299 3.334-4.242a1.583 1.583 0 012.223-.266c.689.537.81 1.532.269 2.22z" fill="#D9A4FC"/><path d="M84.25 21h-28.5A4.764 4.764 0 0051 25.75v25.334a4.764 4.764 0 004.75 4.75h4.72a15.374 15.374 0 01-1.948-3.166H55.75a1.588 1.588 0 01-1.584-1.584V28.918h31.668v22.166c0 .872-.712 1.584-1.584 1.584h-2.772c-.522 1.157-1.187 2.202-1.93 3.166h4.702a4.764 4.764 0 004.75-4.75V25.75A4.764 4.764 0 0084.25 21z" fill="#BE63F9"/><defs><filter id="filter0_d_7_12481" x="0" y="0" width="140" height="153" filterUnits="userSpaceOnUse" color-interpolation-filters="sRGB"><feFlood flood-opacity="0" result="BackgroundImageFix"/><feColorMatrix in="SourceAlpha" values="0 0 0 0 0 0 0 0 0 0 0 0 0 0 0 0 0 0 127 0" result="hardAlpha"/><feOffset dy="43"/><feGaussianBlur stdDeviation="15"/><feComposite in2="hardAlpha" operator="out"/><feColorMatrix values="0 0 0 0 0.4095 0 0 0 0 0 0 0 0 0 0.675 0 0 0 0.08 0"/><feBlend in2="BackgroundImageFix" result="effect1_dropShadow_7_12481"/><feBlend in="SourceGraphic" in2="effect1_dropShadow_7_12481" result="shape"/></filter></defs></svg>