<?xml version="1.0" encoding="UTF-8"?>
<svg xmlns="http://www.w3.org/2000/svg" width="160" height="33" viewBox="0 0 160 33" fill="none"> <path d="M53.256 26C51.744 26 50.988 25.244 50.988 23.732V8.528C50.988 7.016 51.744 6.26 53.256 6.26H58.716C62.076 6.26 64.68 7.11867 66.528 8.836C68.376 10.5347 69.3 12.9613 69.3 16.116C69.3 19.2707 68.376 21.7067 66.528 23.424C64.68 25.1413 62.076 26 58.716 26H53.256ZM55.328 22.444H58.464C62.664 22.444 64.764 20.3347 64.764 16.116C64.764 11.916 62.664 9.816 58.464 9.816H55.328V22.444ZM74.4356 9.732C73.6516 9.732 73.0449 9.55467 72.6156 9.2C72.2049 8.82667 71.9996 8.304 71.9996 7.632C71.9996 6.94133 72.2049 6.41867 72.6156 6.064C73.0449 5.69067 73.6516 5.504 74.4356 5.504C76.0409 5.504 76.8436 6.21333 76.8436 7.632C76.8436 9.032 76.0409 9.732 74.4356 9.732ZM74.4356 26.224C73.7449 26.224 73.2129 26.028 72.8396 25.636C72.4849 25.2253 72.3076 24.656 72.3076 23.928V14.352C72.3076 12.8027 73.0169 12.028 74.4356 12.028C75.1076 12.028 75.6209 12.2333 75.9756 12.644C76.3489 13.036 76.5356 13.6053 76.5356 14.352V23.928C76.5356 24.656 76.3583 25.2253 76.0036 25.636C75.6489 26.028 75.1263 26.224 74.4356 26.224ZM86.4078 31.348C85.3998 31.348 84.4384 31.264 83.5238 31.096C82.6091 30.928 81.7878 30.676 81.0598 30.34C80.5184 30.116 80.1731 29.7987 80.0238 29.388C79.8744 28.9773 79.8744 28.576 80.0238 28.184C80.1918 27.792 80.4438 27.4933 80.7798 27.288C81.1344 27.1013 81.5264 27.1013 81.9558 27.288C82.7771 27.6613 83.5331 27.904 84.2238 28.016C84.9331 28.128 85.5398 28.184 86.0438 28.184C88.4331 28.184 89.6278 27.0827 89.6278 24.88V23.312C89.2544 24.0213 88.6664 24.5907 87.8638 25.02C87.0611 25.4493 86.1838 25.664 85.2318 25.664C83.9998 25.664 82.9264 25.384 82.0118 24.824C81.0971 24.2453 80.3878 23.4427 79.8838 22.416C79.3798 21.3893 79.1278 20.1853 79.1278 18.804C79.1278 17.4413 79.3798 16.2467 79.8838 15.22C80.3878 14.1933 81.0971 13.4 82.0118 12.84C82.9264 12.2613 83.9998 11.972 85.2318 11.972C86.1838 11.972 87.0518 12.1773 87.8358 12.588C88.6198 12.9987 89.1984 13.54 89.5718 14.212V14.156C89.5718 13.4653 89.7491 12.9427 90.1038 12.588C90.4771 12.2147 90.9998 12.028 91.6718 12.028C93.0531 12.028 93.7438 12.7373 93.7438 14.156V24.404C93.7438 26.7187 93.1184 28.4547 91.8678 29.612C90.6171 30.7693 88.7971 31.348 86.4078 31.348ZM86.4918 22.5C87.4251 22.5 88.1718 22.1733 88.7318 21.52C89.3104 20.8667 89.5998 19.9613 89.5998 18.804C89.5998 17.6467 89.3104 16.7507 88.7318 16.116C88.1718 15.4627 87.4251 15.136 86.4918 15.136C85.5398 15.136 84.7838 15.4627 84.2238 16.116C83.6638 16.7507 83.3838 17.6467 83.3838 18.804C83.3838 19.9613 83.6638 20.8667 84.2238 21.52C84.7838 22.1733 85.5398 22.5 86.4918 22.5ZM99.6583 26C98.1463 26 97.3903 25.244 97.3903 23.732V8.528C97.3903 7.016 98.1463 6.26 99.6583 6.26H109.43C110.569 6.26 111.138 6.82 111.138 7.94C111.138 9.07867 110.569 9.648 109.43 9.648H101.534V14.268H108.786C109.944 14.268 110.522 14.8373 110.522 15.976C110.522 17.1147 109.944 17.684 108.786 17.684H101.534V22.612H109.43C110.569 22.612 111.138 23.172 111.138 24.292C111.138 25.4307 110.569 26 109.43 26H99.6583ZM118.545 26.308C117.519 26.308 116.613 26.112 115.829 25.72C115.045 25.328 114.42 24.796 113.953 24.124C113.505 23.452 113.281 22.696 113.281 21.856C113.281 20.8667 113.543 20.0733 114.065 19.476C114.588 18.8787 115.437 18.4587 116.613 18.216C117.789 17.9547 119.348 17.824 121.289 17.824H122.297V17.348C122.297 16.5267 122.111 15.948 121.737 15.612C121.364 15.2573 120.729 15.08 119.833 15.08C119.329 15.08 118.779 15.1453 118.181 15.276C117.584 15.388 116.94 15.584 116.249 15.864C115.727 16.088 115.288 16.1067 114.933 15.92C114.579 15.7147 114.345 15.416 114.233 15.024C114.121 14.6133 114.149 14.2027 114.317 13.792C114.504 13.3813 114.859 13.0827 115.381 12.896C116.259 12.56 117.08 12.3267 117.845 12.196C118.629 12.0467 119.348 11.972 120.001 11.972C122.129 11.972 123.716 12.4573 124.761 13.428C125.807 14.38 126.329 15.864 126.329 17.88V24.096C126.329 25.5333 125.676 26.252 124.369 26.252C123.044 26.252 122.381 25.5333 122.381 24.096V23.928C122.101 24.656 121.625 25.2347 120.953 25.664C120.3 26.0933 119.497 26.308 118.545 26.308ZM119.497 23.48C120.281 23.48 120.944 23.2093 121.485 22.668C122.027 22.1267 122.297 21.4267 122.297 20.568V20.008H121.317C119.88 20.008 118.863 20.1387 118.265 20.4C117.668 20.6427 117.369 21.072 117.369 21.688C117.369 22.2107 117.547 22.64 117.901 22.976C118.275 23.312 118.807 23.48 119.497 23.48ZM134.747 26.308C133.926 26.308 133.077 26.2333 132.199 26.084C131.341 25.9347 130.557 25.6827 129.847 25.328C129.381 25.0853 129.073 24.7773 128.923 24.404C128.793 24.0307 128.793 23.6667 128.923 23.312C129.054 22.9573 129.287 22.696 129.623 22.528C129.959 22.3413 130.351 22.3413 130.799 22.528C131.565 22.8453 132.265 23.0693 132.899 23.2C133.553 23.3307 134.178 23.396 134.775 23.396C135.559 23.396 136.138 23.2747 136.511 23.032C136.885 22.7707 137.071 22.4347 137.071 22.024C137.071 21.3707 136.595 20.96 135.643 20.792L132.703 20.26C131.527 20.0547 130.631 19.6347 130.015 19C129.399 18.3653 129.091 17.5347 129.091 16.508C129.091 15.5747 129.353 14.772 129.875 14.1C130.398 13.428 131.117 12.9053 132.031 12.532C132.946 12.1587 134.001 11.972 135.195 11.972C136.838 11.972 138.294 12.2893 139.563 12.924C139.993 13.1293 140.254 13.4187 140.347 13.792C140.459 14.1653 140.441 14.5293 140.291 14.884C140.142 15.2387 139.899 15.5093 139.563 15.696C139.227 15.864 138.826 15.8453 138.359 15.64C137.743 15.36 137.183 15.164 136.679 15.052C136.175 14.9213 135.699 14.856 135.251 14.856C134.411 14.856 133.805 14.996 133.431 15.276C133.058 15.5373 132.871 15.8733 132.871 16.284C132.871 16.9373 133.31 17.348 134.187 17.516L137.127 18.048C138.341 18.2533 139.265 18.664 139.899 19.28C140.534 19.8773 140.851 20.6987 140.851 21.744C140.851 23.1813 140.291 24.3013 139.171 25.104C138.051 25.9067 136.577 26.308 134.747 26.308ZM146.743 31.292C145.997 31.292 145.465 31.012 145.147 30.452C144.849 29.9107 144.867 29.276 145.203 28.548L146.687 25.244L142.123 14.772C141.825 14.044 141.825 13.4093 142.123 12.868C142.441 12.308 143.066 12.028 143.999 12.028C144.503 12.028 144.905 12.1493 145.203 12.392C145.521 12.616 145.81 13.0547 146.071 13.708L148.927 20.988L151.895 13.68C152.157 13.0453 152.446 12.616 152.763 12.392C153.099 12.1493 153.547 12.028 154.107 12.028C154.817 12.028 155.311 12.308 155.591 12.868C155.89 13.4093 155.881 14.0347 155.563 14.744L148.983 29.668C148.703 30.3027 148.386 30.732 148.031 30.956C147.695 31.18 147.266 31.292 146.743 31.292Z" fill="#1A0C06"/> <path fill-rule="evenodd" clip-rule="evenodd" d="M25 16.937L7.45848 0.937012H0L17.5415 16.937L0 32.937L7.45848 32.937L25 16.937Z" fill="#1D5EF4"/> <path fill-rule="evenodd" clip-rule="evenodd" d="M36.8906 5.93604H19.9385L32 16.937L19.9404 27.9365H37L31 32.9365L14.458 32.937L7.44922 32.9365L7 32.937L24.542 16.937L7 0.937012L7.45801 0.936523L14.458 0.937012L30.9385 0.936523L36.8906 5.93604Z" fill="#FF733B"/> </svg>