<?xml version="1.0" encoding="UTF-8"?>
<svg xmlns="http://www.w3.org/2000/svg" width="160" height="33" viewBox="0 0 160 33" fill="none"> <path d="M53.256 25.0635C51.744 25.0635 50.988 24.3075 50.988 22.7955V7.59148C50.988 6.07948 51.744 5.32348 53.256 5.32348H58.716C62.076 5.32348 64.68 6.18214 66.528 7.89948C68.376 9.59814 69.3 12.0248 69.3 15.1795C69.3 18.3341 68.376 20.7701 66.528 22.4875C64.68 24.2048 62.076 25.0635 58.716 25.0635H53.256ZM55.328 21.5075H58.464C62.664 21.5075 64.764 19.3981 64.764 15.1795C64.764 10.9795 62.664 8.87948 58.464 8.87948H55.328V21.5075ZM74.4356 8.79548C73.6516 8.79548 73.0449 8.61814 72.6156 8.26348C72.2049 7.89014 71.9996 7.36748 71.9996 6.69548C71.9996 6.00481 72.2049 5.48214 72.6156 5.12748C73.0449 4.75414 73.6516 4.56748 74.4356 4.56748C76.0409 4.56748 76.8436 5.27681 76.8436 6.69548C76.8436 8.09548 76.0409 8.79548 74.4356 8.79548ZM74.4356 25.2875C73.7449 25.2875 73.2129 25.0915 72.8396 24.6995C72.4849 24.2888 72.3076 23.7195 72.3076 22.9915V13.4155C72.3076 11.8661 73.0169 11.0915 74.4356 11.0915C75.1076 11.0915 75.6209 11.2968 75.9756 11.7075C76.3489 12.0995 76.5356 12.6688 76.5356 13.4155V22.9915C76.5356 23.7195 76.3583 24.2888 76.0036 24.6995C75.6489 25.0915 75.1263 25.2875 74.4356 25.2875ZM86.4078 30.4115C85.3998 30.4115 84.4384 30.3275 83.5238 30.1595C82.6091 29.9915 81.7878 29.7395 81.0598 29.4035C80.5184 29.1795 80.1731 28.8621 80.0238 28.4515C79.8744 28.0408 79.8744 27.6395 80.0238 27.2475C80.1918 26.8555 80.4438 26.5568 80.7798 26.3515C81.1344 26.1648 81.5264 26.1648 81.9558 26.3515C82.7771 26.7248 83.5331 26.9675 84.2238 27.0795C84.9331 27.1915 85.5398 27.2475 86.0438 27.2475C88.4331 27.2475 89.6278 26.1461 89.6278 23.9435V22.3755C89.2544 23.0848 88.6664 23.6541 87.8638 24.0835C87.0611 24.5128 86.1838 24.7275 85.2318 24.7275C83.9998 24.7275 82.9264 24.4475 82.0118 23.8875C81.0971 23.3088 80.3878 22.5061 79.8838 21.4795C79.3798 20.4528 79.1278 19.2488 79.1278 17.8675C79.1278 16.5048 79.3798 15.3101 79.8838 14.2835C80.3878 13.2568 81.0971 12.4635 82.0118 11.9035C82.9264 11.3248 83.9998 11.0355 85.2318 11.0355C86.1838 11.0355 87.0518 11.2408 87.8358 11.6515C88.6198 12.0621 89.1984 12.6035 89.5718 13.2755V13.2195C89.5718 12.5288 89.7491 12.0061 90.1038 11.6515C90.4771 11.2781 90.9998 11.0915 91.6718 11.0915C93.0531 11.0915 93.7438 11.8008 93.7438 13.2195V23.4675C93.7438 25.7821 93.1184 27.5181 91.8678 28.6755C90.6171 29.8328 88.7971 30.4115 86.4078 30.4115ZM86.4918 21.5635C87.4251 21.5635 88.1718 21.2368 88.7318 20.5835C89.3104 19.9301 89.5998 19.0248 89.5998 17.8675C89.5998 16.7101 89.3104 15.8141 88.7318 15.1795C88.1718 14.5261 87.4251 14.1995 86.4918 14.1995C85.5398 14.1995 84.7838 14.5261 84.2238 15.1795C83.6638 15.8141 83.3838 16.7101 83.3838 17.8675C83.3838 19.0248 83.6638 19.9301 84.2238 20.5835C84.7838 21.2368 85.5398 21.5635 86.4918 21.5635ZM99.6583 25.0635C98.1463 25.0635 97.3903 24.3075 97.3903 22.7955V7.59148C97.3903 6.07948 98.1463 5.32348 99.6583 5.32348H109.43C110.569 5.32348 111.138 5.88348 111.138 7.00348C111.138 8.14214 110.569 8.71148 109.43 8.71148H101.534V13.3315H108.786C109.944 13.3315 110.522 13.9008 110.522 15.0395C110.522 16.1781 109.944 16.7475 108.786 16.7475H101.534V21.6755H109.43C110.569 21.6755 111.138 22.2355 111.138 23.3555C111.138 24.4941 110.569 25.0635 109.43 25.0635H99.6583ZM118.545 25.3715C117.519 25.3715 116.613 25.1755 115.829 24.7835C115.045 24.3915 114.42 23.8595 113.953 23.1875C113.505 22.5155 113.281 21.7595 113.281 20.9195C113.281 19.9301 113.543 19.1368 114.065 18.5395C114.588 17.9421 115.437 17.5221 116.613 17.2795C117.789 17.0181 119.348 16.8875 121.289 16.8875H122.297V16.4115C122.297 15.5901 122.111 15.0115 121.737 14.6755C121.364 14.3208 120.729 14.1435 119.833 14.1435C119.329 14.1435 118.779 14.2088 118.181 14.3395C117.584 14.4515 116.94 14.6475 116.249 14.9275C115.727 15.1515 115.288 15.1701 114.933 14.9835C114.579 14.7781 114.345 14.4795 114.233 14.0875C114.121 13.6768 114.149 13.2661 114.317 12.8555C114.504 12.4448 114.859 12.1461 115.381 11.9595C116.259 11.6235 117.08 11.3901 117.845 11.2595C118.629 11.1101 119.348 11.0355 120.001 11.0355C122.129 11.0355 123.716 11.5208 124.761 12.4915C125.807 13.4435 126.329 14.9275 126.329 16.9435V23.1595C126.329 24.5968 125.676 25.3155 124.369 25.3155C123.044 25.3155 122.381 24.5968 122.381 23.1595V22.9915C122.101 23.7195 121.625 24.2981 120.953 24.7275C120.3 25.1568 119.497 25.3715 118.545 25.3715ZM119.497 22.5435C120.281 22.5435 120.944 22.2728 121.485 21.7315C122.027 21.1901 122.297 20.4901 122.297 19.6315V19.0715H121.317C119.88 19.0715 118.863 19.2021 118.265 19.4635C117.668 19.7061 117.369 20.1355 117.369 20.7515C117.369 21.2741 117.547 21.7035 117.901 22.0395C118.275 22.3755 118.807 22.5435 119.497 22.5435ZM134.747 25.3715C133.926 25.3715 133.077 25.2968 132.199 25.1475C131.341 24.9981 130.557 24.7461 129.847 24.3915C129.381 24.1488 129.073 23.8408 128.923 23.4675C128.793 23.0941 128.793 22.7301 128.923 22.3755C129.054 22.0208 129.287 21.7595 129.623 21.5915C129.959 21.4048 130.351 21.4048 130.799 21.5915C131.565 21.9088 132.265 22.1328 132.899 22.2635C133.553 22.3941 134.178 22.4595 134.775 22.4595C135.559 22.4595 136.138 22.3381 136.511 22.0955C136.885 21.8341 137.071 21.4981 137.071 21.0875C137.071 20.4341 136.595 20.0235 135.643 19.8555L132.703 19.3235C131.527 19.1181 130.631 18.6981 130.015 18.0635C129.399 17.4288 129.091 16.5981 129.091 15.5715C129.091 14.6381 129.353 13.8355 129.875 13.1635C130.398 12.4915 131.117 11.9688 132.031 11.5955C132.946 11.2221 134.001 11.0355 135.195 11.0355C136.838 11.0355 138.294 11.3528 139.563 11.9875C139.993 12.1928 140.254 12.4821 140.347 12.8555C140.459 13.2288 140.441 13.5928 140.291 13.9475C140.142 14.3021 139.899 14.5728 139.563 14.7595C139.227 14.9275 138.826 14.9088 138.359 14.7035C137.743 14.4235 137.183 14.2275 136.679 14.1155C136.175 13.9848 135.699 13.9195 135.251 13.9195C134.411 13.9195 133.805 14.0595 133.431 14.3395C133.058 14.6008 132.871 14.9368 132.871 15.3475C132.871 16.0008 133.31 16.4115 134.187 16.5795L137.127 17.1115C138.341 17.3168 139.265 17.7275 139.899 18.3435C140.534 18.9408 140.851 19.7621 140.851 20.8075C140.851 22.2448 140.291 23.3648 139.171 24.1675C138.051 24.9701 136.577 25.3715 134.747 25.3715ZM146.743 30.3555C145.997 30.3555 145.465 30.0755 145.147 29.5155C144.849 28.9741 144.867 28.3395 145.203 27.6115L146.687 24.3075L142.123 13.8355C141.825 13.1075 141.825 12.4728 142.123 11.9315C142.441 11.3715 143.066 11.0915 143.999 11.0915C144.503 11.0915 144.905 11.2128 145.203 11.4555C145.521 11.6795 145.81 12.1181 146.071 12.7715L148.927 20.0515L151.895 12.7435C152.157 12.1088 152.446 11.6795 152.763 11.4555C153.099 11.2128 153.547 11.0915 154.107 11.0915C154.817 11.0915 155.311 11.3715 155.591 11.9315C155.89 12.4728 155.881 13.0981 155.563 13.8075L148.983 28.7315C148.703 29.3661 148.386 29.7955 148.031 30.0195C147.695 30.2435 147.266 30.3555 146.743 30.3555Z" fill="#F4ECE0"/> <path fill-rule="evenodd" clip-rule="evenodd" d="M25 16.0005L7.45848 0.000488281H0L17.5415 16.0005L0 32.0005L7.45848 32.0005L25 16.0005Z" fill="#1D5EF4"/> <path fill-rule="evenodd" clip-rule="evenodd" d="M7.45873 0.000534437L7.45831 0.000152396L30.9384 0L36.8902 4.99976L19.9394 4.99976L32 16.0005L19.9406 27.0001H37L30.9999 32.0001L14.459 32.0001L14.4585 32.0005H7L24.5415 16.0005L7 0.000534417L7.45873 0.000534437Z" fill="#FF733B"/> </svg>