<svg display="none" xmlns="http://www.w3.org/2000/svg">
	<symbol id="phone" viewBox="0 0 24 24">
		<path d="M17.5951 21.006H17.5671C13.7254 20.9115 10.0594 19.3775 7.2951 16.708C4.62462 13.9463 3.08979 10.2816 2.99498 6.44103C2.98933 5.90303 3.20056 5.38539 3.5811 5.00503L6.2951 2.29303C6.6856 1.90265 7.3186 1.90265 7.7091 2.29303L11.7091 6.29303C12.0995 6.68353 12.0995 7.31653 11.7091 7.70703L10.1131 9.30003C10.4091 10.406 10.9544 11.4294 11.7071 12.292C12.5681 13.045 13.5903 13.5907 14.6951 13.887L16.2951 12.293C16.6856 11.9026 17.3186 11.9026 17.7091 12.293L21.7091 16.293C22.0995 16.6835 22.0995 17.3165 21.7091 17.707L18.9951 20.42C18.625 20.7939 18.1212 21.0048 17.5951 21.006ZM7.0001 4.41503H6.9951L4.9951 6.41903C5.07664 9.73769 6.40142 12.9047 8.7071 15.293C11.0955 17.5979 14.2619 18.9226 17.5801 19.005L19.5871 17L16.9951 14.415L15.7021 15.707C15.5171 15.8941 15.2652 15.9995 15.0021 16C14.9319 16.0001 14.8618 15.9927 14.7931 15.978C13.1267 15.6094 11.5795 14.8286 10.2931 13.707C9.17155 12.4206 8.39071 10.8734 8.0221 9.20703C7.95256 8.8758 8.05529 8.53187 8.2951 8.29303L9.5871 7.00003L7.0001 4.41503Z"/>
	</symbol>
	<symbol id="place" viewBox="0 0 24 24">
		<path d="M12 21C10.7369 19.9227 9.56619 18.7416 8.5 17.4691C6.9 15.5581 5 12.712 5 10.0001C4.99858 7.1676 6.70425 4.61344 9.32107 3.52945C11.9379 2.44545 14.9501 3.04529 16.952 5.04905C18.2685 6.35966 19.0059 8.14244 19 10.0001C19 12.712 17.1 15.5581 15.5 17.4691C14.4338 18.7416 13.2631 19.9227 12 21ZM12 5.00005C9.23995 5.00336 7.00331 7.24 7 10.0001C7 11.166 7.527 13.1851 10.035 16.1861C10.6531 16.9241 11.309 17.6297 12 18.3001C12.691 17.6305 13.3472 16.9259 13.966 16.1891C16.473 13.1841 17 11.1651 17 10.0001C16.9967 7.24 14.7601 5.00336 12 5.00005ZM12 13.0001C10.3431 13.0001 9 11.6569 9 10.0001C9 8.3432 10.3431 7.00005 12 7.00005C13.6569 7.00005 15 8.3432 15 10.0001C15 10.7957 14.6839 11.5588 14.1213 12.1214C13.5587 12.684 12.7957 13.0001 12 13.0001Z"/>
	</symbol>
	<symbol id="instagram" viewBox="0 0 22 22">
		<path d="M16.0448 0H5.95519C2.67144 0 0 2.67144 0 5.95519V16.0449C0 19.3285 2.67144 22 5.95519 22H16.0449C19.3285 22 22 19.3285 22 16.0449V5.95519C22 2.67144 19.3285 0 16.0448 0V0ZM20.7102 16.0449C20.7102 18.6173 18.6173 20.7102 16.0448 20.7102H5.95519C3.38261 20.7102 1.28973 18.6173 1.28973 16.0449V5.95519C1.28973 3.38261 3.38261 1.28973 5.95519 1.28973H16.0449C18.6173 1.28973 20.7102 3.38261 20.7102 5.95519V16.0449Z"/>
		<path d="M10.9998 4.98438C7.68284 4.98438 4.98438 7.68284 4.98438 10.9998C4.98438 14.3168 7.68284 17.0153 10.9998 17.0153C14.3168 17.0153 17.0153 14.3168 17.0153 10.9998C17.0153 7.68284 14.3168 4.98438 10.9998 4.98438ZM10.9998 15.7255C8.39417 15.7255 6.27411 13.6056 6.27411 10.9998C6.27411 8.39417 8.39417 6.27411 10.9998 6.27411C13.6056 6.27411 15.7255 8.39417 15.7255 10.9998C15.7255 13.6056 13.6056 15.7255 10.9998 15.7255Z"/>
		<path d="M17.1593 2.84814C16.1791 2.84814 15.3818 3.64558 15.3818 4.62564C15.3818 5.60586 16.1791 6.4033 17.1593 6.4033C18.1396 6.4033 18.937 5.60586 18.937 4.62564C18.937 3.64541 18.1396 2.84814 17.1593 2.84814ZM17.1593 5.1134C16.8904 5.1134 16.6716 4.89453 16.6716 4.62564C16.6716 4.35658 16.8904 4.13788 17.1593 4.13788C17.4284 4.13788 17.6473 4.35658 17.6473 4.62564C17.6473 4.89453 17.4284 5.1134 17.1593 5.1134Z"/>
	</symbol>
	<symbol id="facebook" viewBox="0 0 22 22">
		<path d="M19.3206 0H2.6794C1.20196 0 0 1.20196 0 2.6794V19.3206C0 20.798 1.20196 22 2.6794 22H11.2088C11.5676 22 11.8584 21.7091 11.8584 21.3504V13.4738C11.8584 13.1151 11.5676 12.8242 11.2088 12.8242H8.87386V10.9751H11.2088C11.5676 10.9751 11.8584 10.6843 11.8584 10.3255V7.69618C11.8584 6.27322 13.0161 5.11556 14.4391 5.11556H16.6921V6.96463H14.4391C14.0357 6.96463 13.7075 7.29287 13.7075 7.69622V10.3256C13.7075 10.6843 13.9984 10.9752 14.3571 10.9752H16.6921V12.8242H14.3571C13.9984 12.8242 13.7075 13.1151 13.7075 13.4738V21.3504C13.7075 21.7092 13.9984 22 14.3571 22H19.3206C20.798 22 22 20.798 22 19.3206V2.6794C22 1.20196 20.798 0 19.3206 0ZM20.7008 19.3206C20.7008 20.0817 20.0817 20.7008 19.3206 20.7008H15.0067H15.0067V14.1234H17.3416C17.7004 14.1234 17.9912 13.8325 17.9912 13.4738V10.3256C17.9912 9.96682 17.7004 9.67596 17.3416 9.67596H15.0067V8.26384H17.3416C17.7004 8.26384 17.9912 7.97298 17.9912 7.61423V4.466C17.9912 4.10725 17.7004 3.8164 17.3416 3.8164H14.439C12.2997 3.8164 10.5592 5.55689 10.5592 7.69622V9.67596H8.22426C7.86552 9.67596 7.57466 9.96682 7.57466 10.3256V13.4738C7.57466 13.8325 7.86552 14.1234 8.22426 14.1234H10.5592V20.7008H2.6794C1.91834 20.7008 1.29916 20.0817 1.29916 19.3206V2.6794C1.29916 1.91834 1.9183 1.29916 2.6794 1.29916H19.3206C20.0816 1.29916 20.7008 1.9183 20.7008 2.6794V19.3206Z"/>
	</symbol>
	<symbol id="youtube" viewBox="0 0 22 22">
		<path d="M14.3862 10.0114L9.52587 7.35199C9.24641 7.19908 8.91609 7.20479 8.64216 7.3671C8.36807 7.52957 8.20459 7.81659 8.20459 8.13517V13.4082C8.20459 13.7253 8.36706 14.0118 8.63931 14.1745C8.78148 14.2594 8.93908 14.302 9.09703 14.302C9.24171 14.302 9.38673 14.2663 9.52017 14.1944L14.3806 11.5809C14.6692 11.4256 14.8493 11.1257 14.8506 10.7979C14.8518 10.4701 14.6739 10.1688 14.3862 10.0114ZM9.49381 12.7449V8.80387L13.1263 10.7915L9.49381 12.7449Z"/>
		<path d="M21.8381 6.59688L21.8371 6.58681C21.8185 6.40973 21.633 4.83466 20.8673 4.03352C19.9822 3.09123 18.9789 2.97676 18.4963 2.92188C18.4563 2.91734 18.4198 2.91315 18.387 2.90878L18.3486 2.90475C15.4402 2.69327 11.0478 2.6644 11.0038 2.66423L11 2.66406L10.9961 2.66423C10.9521 2.6644 6.55976 2.69327 3.62514 2.90475L3.58637 2.90878C3.55515 2.91298 3.52074 2.91684 3.48331 2.9212C3.00629 2.97626 2.01365 3.0909 1.12608 4.06726C0.396788 4.85983 0.185973 6.40117 0.164321 6.57439L0.161804 6.59688C0.155258 6.67056 0 8.42473 0 10.1858V11.832C0 13.5931 0.155258 15.3472 0.161804 15.4211L0.162979 15.4322C0.181609 15.6064 0.366911 17.1526 1.1291 17.9541C1.96128 18.8648 3.01351 18.9853 3.57948 19.0501C3.66895 19.0603 3.74599 19.0691 3.79852 19.0783L3.84938 19.0853C5.52868 19.2451 10.7938 19.3239 11.0171 19.327L11.0238 19.3272L11.0305 19.327C11.0745 19.3269 15.4667 19.298 18.3751 19.0865L18.4135 19.0825C18.4503 19.0776 18.4916 19.0733 18.5369 19.0686C19.0112 19.0182 19.9985 18.9136 20.8738 17.9505C21.6031 17.1578 21.8141 15.6165 21.8356 15.4434L21.8381 15.4209C21.8447 15.3471 22.0001 13.5931 22.0001 11.832V10.1858C21.9999 8.42473 21.8447 6.67073 21.8381 6.59688ZM20.7107 11.832C20.7107 13.462 20.5684 15.1406 20.5549 15.2947C20.5002 15.7192 20.2778 16.6944 19.9225 17.0806C19.3746 17.6833 18.8118 17.7431 18.401 17.7865C18.3513 17.7917 18.3053 17.7968 18.2637 17.802C15.4506 18.0054 11.224 18.0366 11.0293 18.0378C10.811 18.0346 5.62284 17.9552 3.99474 17.804C3.91132 17.7904 3.82118 17.78 3.72618 17.7693C3.2443 17.714 2.58466 17.6385 2.07743 17.0806L2.06551 17.0678C1.71639 16.7041 1.50038 15.7922 1.44549 15.2997C1.43525 15.1832 1.28923 13.4848 1.28923 11.832V10.1858C1.28923 8.55766 1.43122 6.88087 1.44499 6.7236C1.51028 6.22359 1.73687 5.30748 2.07743 4.93721C2.64206 4.31618 3.23741 4.24736 3.63118 4.20187C3.66878 4.19751 3.70386 4.19348 3.73625 4.18929C6.59031 3.98485 10.8472 3.95447 11 3.95329C11.1527 3.9543 15.4081 3.98485 18.2368 4.18929C18.2716 4.19365 18.3095 4.19801 18.3503 4.20271C18.7553 4.24887 19.3674 4.3187 19.9292 4.91791L19.9344 4.92345C20.2835 5.28717 20.4995 6.21503 20.5544 6.71739C20.5642 6.82733 20.7107 8.52946 20.7107 10.1858V11.832Z"/>
	</symbol>
	<symbol id="telegram" viewBox="0 0 22 22">
		<path d="M21.6603 3.52583C21.3916 3.26291 20.9891 3.11816 20.5269 3.11816C20.2756 3.11816 20.0094 3.16046 19.7358 3.24412L1.11319 8.93116C0.124912 9.23289 -0.00818995 9.68567 0.000370223 9.92871C0.00893039 10.1718 0.173923 10.6178 1.18201 10.8744C1.18805 10.8759 1.1941 10.8774 1.20014 10.8787L5.06296 11.7631L7.15198 16.542C7.43682 17.1935 8.07615 17.5982 8.82072 17.5982C9.29018 17.5982 9.75193 17.4409 10.1561 17.1433L12.5454 15.3834L16.011 17.6156C16.0112 17.616 16.0117 17.6161 16.0121 17.6164L16.045 17.6375C16.048 17.6395 16.0512 17.6414 16.0543 17.6434C16.4395 17.8823 16.8599 18.0086 17.2706 18.0087H17.2707C18.0732 18.0087 18.7122 17.5335 18.8984 16.7982L21.9496 4.74494C22.0722 4.26113 21.9694 3.82822 21.6603 3.52583ZM6.35521 11.5951L13.8078 8.54927L9.16731 12.4939C9.09128 12.5585 9.0374 12.6376 9.01088 12.7237L8.11609 15.6233L6.35521 11.5951ZM9.2828 16.3846C9.25192 16.4074 9.22086 16.4276 9.1898 16.4462L10.02 13.7564L11.5301 14.7293L9.2828 16.3846ZM20.6864 4.54017L17.635 16.5936C17.6056 16.7089 17.5118 16.9773 17.2706 16.9773C17.1514 16.9773 17.0017 16.9253 16.8485 16.831L12.9216 14.3015C12.9211 14.3011 12.9204 14.3006 12.9197 14.3004L10.5831 12.7951L17.2938 7.09063C17.5086 6.908 17.5281 6.62831 17.3399 6.42769C17.1516 6.22709 16.8104 6.16397 16.5313 6.27812L5.49399 10.789L1.57863 9.89286L20.1955 4.20756C20.3528 4.15948 20.4626 4.14941 20.5269 4.14941C20.5663 4.14941 20.6365 4.15317 20.6625 4.17882C20.6967 4.21226 20.7404 4.32625 20.6864 4.54017Z"/>
	</symbol>
	<symbol id="vk" viewBox="0 0 22 22">
		<path d="M11.1329 17.75C14.3156 17.75 13.1808 15.7352 13.4265 15.1558C13.4228 14.7232 13.4191 14.307 13.4338 14.054C13.6355 14.1108 14.1112 14.3519 15.0938 15.3071C16.611 16.8379 16.9987 17.75 18.2243 17.75H20.4802C21.1952 17.75 21.5673 17.454 21.7535 17.2055C21.9331 16.9653 22.1091 16.5437 21.9166 15.8873C21.4133 14.307 18.4782 11.5781 18.2958 11.2903C18.3233 11.2371 18.3673 11.1665 18.3902 11.1298H18.3883C18.9677 10.3644 21.1787 7.05158 21.5041 5.72608C21.505 5.72425 21.506 5.7215 21.506 5.71875C21.682 5.11375 21.5206 4.72142 21.3538 4.49958C21.1026 4.16775 20.703 4 20.163 4H17.9071C17.1518 4 16.5788 4.38042 16.2892 5.07433C15.8043 6.30725 14.4421 8.84275 13.421 9.74017C13.3898 8.46875 13.4108 7.498 13.4273 6.77658C13.4603 5.3695 13.5667 4 12.1064 4H8.56075C7.64592 4 6.7705 4.99917 7.71833 6.18533C8.547 7.22483 8.01625 7.80417 8.195 10.688C7.49833 9.94092 6.259 7.92333 5.38267 5.34475C5.137 4.64717 4.76483 4.00092 3.71708 4.00092H1.46117C0.546333 4.00092 0 4.49958 0 5.33467C0 7.21017 4.15158 17.75 11.1329 17.75ZM3.71708 5.37592C3.916 5.37592 3.93617 5.37592 4.08375 5.79483C4.98117 8.43758 6.99417 12.3481 8.4645 12.3481C9.56908 12.3481 9.56908 11.216 9.56908 10.7898L9.56817 7.39625C9.50767 6.27333 9.09883 5.71417 8.83025 5.375L12.0459 5.37867C12.0478 5.39425 12.0276 9.13242 12.0551 10.0381C12.0551 11.3242 13.0763 12.0612 14.6703 10.4478C16.3525 8.54942 17.5157 5.71142 17.5625 5.59592C17.6312 5.43092 17.6908 5.375 17.9071 5.375H20.163H20.1722C20.1713 5.37775 20.1713 5.3805 20.1703 5.38325C19.9641 6.34575 17.9282 9.41292 17.2471 10.3653C17.2361 10.38 17.226 10.3956 17.216 10.4112C16.9162 10.9007 16.6723 11.4415 17.2572 12.2023H17.2581C17.3113 12.2665 17.4497 12.4168 17.6513 12.6258C18.2783 13.273 20.4288 15.4858 20.6195 16.3658C20.493 16.386 20.3555 16.3713 18.2243 16.3759C17.7705 16.3759 17.4158 15.6976 16.0618 14.3318C14.8445 13.1474 14.0543 12.6634 13.3348 12.6634C11.9378 12.6634 12.0395 13.7973 12.0523 15.1687C12.0569 16.6555 12.0478 16.1853 12.0578 16.2788C11.9763 16.3108 11.7425 16.375 11.1329 16.375C5.31667 16.375 1.529 7.14325 1.38325 5.37867C1.43367 5.37408 2.12758 5.37683 3.71708 5.37592Z"/>
	</symbol>
	<symbol id="arrowMenu" viewBox="0 0 8 8">
		<path d="M3.99998 6.27995C3.8566 6.27995 3.71324 6.22521 3.60393 6.11595L0.164113 2.67609C-0.0547044 2.45728 -0.0547044 2.1025 0.164113 1.88377C0.382842 1.66504 0.737546 1.66504 0.956381 1.88377L3.99998 4.92755L7.04359 1.88388C7.26241 1.66515 7.61708 1.66515 7.83579 1.88388C8.05471 2.10261 8.05471 2.45738 7.83579 2.6762L4.39602 6.11606C4.28666 6.22533 4.1433 6.27995 3.99998 6.27995Z"/>
	</symbol>
	<symbol id="plus" viewBox="0 0 24 24">
		<path d="M22.7999 10.8H13.2001V1.19993C13.2001 0.537671 12.6624 0 11.9999 0C11.3377 0 10.8 0.537671 10.8 1.19993V10.8H1.19993C0.537671 10.8 0 11.3377 0 11.9999C0 12.6624 0.537671 13.2001 1.19993 13.2001H10.8V22.7999C10.8 23.4624 11.3377 24.0001 11.9999 24.0001C12.6624 24.0001 13.2001 23.4624 13.2001 22.7999V13.2001H22.7999C23.4624 13.2001 24.0001 12.6624 24.0001 11.9999C24.0001 11.3377 23.4624 10.8 22.7999 10.8Z"/>
	</symbol>
	<symbol id="search" viewBox="0 0 18 18">
		<path d="M7.92682 0C3.55609 0 0 3.55609 0 7.92682C0 12.2978 3.55609 15.8536 7.92682 15.8536C12.2978 15.8536 15.8536 12.2978 15.8536 7.92682C15.8536 3.55609 12.2978 0 7.92682 0ZM7.92682 14.3903C4.36293 14.3903 1.46341 11.4908 1.46341 7.92686C1.46341 4.36296 4.36293 1.46341 7.92682 1.46341C11.4907 1.46341 14.3902 4.36293 14.3902 7.92682C14.3902 11.4907 11.4907 14.3903 7.92682 14.3903Z"/>
		<path d="M17.7855 16.7511L13.5904 12.5559C13.3046 12.2701 12.8416 12.2701 12.5558 12.5559C12.2699 12.8416 12.2699 13.305 12.5558 13.5906L16.7509 17.7857C16.8938 17.9286 17.0809 18.0001 17.2682 18.0001C17.4553 18.0001 17.6426 17.9286 17.7855 17.7857C18.0714 17.5001 18.0714 17.0367 17.7855 16.7511Z"/>
	</symbol>
</svg>