<?xml version="1.0" encoding="UTF-8"?>
<svg xmlns="http://www.w3.org/2000/svg" width="140" height="153" viewBox="0 0 140 153" fill="none"> <g filter="url(#filter0_d_7_12481)"> <rect x="30" width="80" height="80" rx="8" fill="#F5E6FE"/> <rect x="32" y="2" width="76" height="76" rx="6" stroke="white" stroke-width="4"/> </g> <path d="M78.6949 39.7246L70.3824 36.8984C70.1354 36.8129 69.867 36.8129 69.6176 36.8984L61.3051 39.7246C60.823 39.8885 60.5 40.3397 60.5 40.848V47.2106C60.5 54.9769 69.1664 58.7484 69.5369 58.9075C69.6841 58.9692 69.8433 59.0001 70 59.0001C70.1567 59.0001 70.3159 58.9692 70.4631 58.9051C70.8336 58.7484 79.5 54.9745 79.5 47.2106V40.848C79.5 40.3397 79.177 39.8885 78.6949 39.7246V39.7246ZM75.2036 45.7286L70.8502 51.2695C70.5842 51.6091 70.19 51.8252 69.7601 51.868C69.7079 51.8727 69.6556 51.8751 69.6034 51.8751C69.2281 51.8751 68.86 51.7421 68.5726 51.4951L65.801 49.1201C65.136 48.5501 65.0576 47.5526 65.63 46.8876C66.2 46.225 67.1999 46.1466 67.8601 46.7166L69.3777 48.0157L72.7123 43.774C73.2514 43.0876 74.2465 42.9665 74.9352 43.508C75.624 44.0447 75.7451 45.0399 75.2036 45.7286V45.7286Z" fill="#D9A4FC"/> <path d="M84.25 21H55.75C53.1375 21 51 23.1375 51 25.75V51.0841C51 53.6966 53.1375 55.8341 55.75 55.8341H60.4691C59.7091 54.8675 59.0441 53.8225 58.5216 52.6682H55.75C54.8784 52.6682 54.1659 51.9557 54.1659 51.0841V28.9182H85.8341V51.0841C85.8341 51.9557 85.1216 52.6682 84.25 52.6682H81.4784C80.9559 53.8249 80.2909 54.8699 79.5475 55.8341H84.25C86.8625 55.8341 89 53.6966 89 51.0841V25.75C89 23.1375 86.8625 21 84.25 21V21Z" fill="#BE63F9"/> <defs> <filter id="filter0_d_7_12481" x="0" y="0" width="140" height="153" filterUnits="userSpaceOnUse" color-interpolation-filters="sRGB"> <feFlood flood-opacity="0" result="BackgroundImageFix"/> <feColorMatrix in="SourceAlpha" type="matrix" values="0 0 0 0 0 0 0 0 0 0 0 0 0 0 0 0 0 0 127 0" result="hardAlpha"/> <feOffset dy="43"/> <feGaussianBlur stdDeviation="15"/> <feComposite in2="hardAlpha" operator="out"/> <feColorMatrix type="matrix" values="0 0 0 0 0.4095 0 0 0 0 0 0 0 0 0 0.675 0 0 0 0.08 0"/> <feBlend mode="normal" in2="BackgroundImageFix" result="effect1_dropShadow_7_12481"/> <feBlend mode="normal" in="SourceGraphic" in2="effect1_dropShadow_7_12481" result="shape"/> </filter> </defs> </svg>