<?xml version="1.0" encoding="UTF-8"?>
<svg xmlns="http://www.w3.org/2000/svg" width="140" height="153" viewBox="0 0 140 153" fill="none"> <g filter="url(#filter0_d_7_12491)"> <rect x="30" width="80" height="80" rx="8" fill="#F4ECE0"/> <rect x="32" y="2" width="76" height="76" rx="6" stroke="white" stroke-width="4"/> </g> <path d="M78.6949 23.8904L70.3824 21.0641C70.1354 20.9786 69.867 20.9786 69.6176 21.0641L61.3051 23.8904C60.823 24.0542 60.5 24.5055 60.5 25.0161V31.3787C60.5 39.145 69.1664 42.9165 69.5369 43.0756C69.6865 43.1374 69.8433 43.1706 70 43.1706C70.1567 43.1706 70.3159 43.1398 70.4631 43.0756C70.8336 42.9165 79.5 39.1426 79.5 31.3764V25.0161C79.5 24.5055 79.177 24.0542 78.6949 23.8904V23.8904ZM75.2036 29.8944L70.8502 35.4352C70.5842 35.7749 70.19 35.991 69.7601 36.0337C69.7103 36.0385 69.6556 36.0409 69.6057 36.0409C69.2305 36.0409 68.8624 35.9079 68.575 35.6609L65.8034 33.2859C65.1384 32.7159 65.06 31.7184 65.6324 31.0534C66.2024 30.3907 67.2023 30.3124 67.8625 30.8824L69.3801 32.1815L72.7146 27.9397C73.2537 27.2534 74.2489 27.1322 74.9376 27.6737C75.624 28.2129 75.7451 29.208 75.2036 29.8944V29.8944Z" fill="#FD907E"/> <path d="M86.2307 27.334H82.6682V30.4999H85.8341V47.9157H54.1659V30.4999H57.3318V27.334H53.7693C52.2493 27.334 51 28.5832 51 30.1032V51.4782C51 52.9982 52.2493 54.2499 53.7693 54.2499H65.896C65.7108 55.0431 65.2167 56.3304 63.8986 57.6485C63.673 57.8741 63.6041 58.2161 63.7276 58.5106C63.8488 58.8075 64.1385 58.9999 64.4591 58.9999H75.5432C75.8639 58.9999 76.1536 58.8075 76.2748 58.5106C76.3959 58.2137 76.3294 57.8741 76.1037 57.6485C74.788 56.3327 74.2821 55.0455 74.085 54.2499H86.2307C87.7507 54.2499 89 52.9982 89 51.4782V30.1032C89 28.5832 87.7507 27.334 86.2307 27.334V27.334Z" fill="#FF733B"/> <defs> <filter id="filter0_d_7_12491" x="0" y="0" width="140" height="153" filterUnits="userSpaceOnUse" color-interpolation-filters="sRGB"> <feFlood flood-opacity="0" result="BackgroundImageFix"/> <feColorMatrix in="SourceAlpha" type="matrix" values="0 0 0 0 0 0 0 0 0 0 0 0 0 0 0 0 0 0 127 0" result="hardAlpha"/> <feOffset dy="43"/> <feGaussianBlur stdDeviation="15"/> <feComposite in2="hardAlpha" operator="out"/> <feColorMatrix type="matrix" values="0 0 0 0 0.6875 0 0 0 0 0.0997409 0 0 0 0 0 0 0 0 0.08 0"/> <feBlend mode="normal" in2="BackgroundImageFix" result="effect1_dropShadow_7_12491"/> <feBlend mode="normal" in="SourceGraphic" in2="effect1_dropShadow_7_12491" result="shape"/> </filter> </defs> </svg>