<?xml version="1.0" encoding="UTF-8"?>
<svg xmlns="http://www.w3.org/2000/svg" width="140" height="153" viewBox="0 0 140 153" fill="none"> <g filter="url(#filter0_d_7_12501)"> <rect x="30" width="80" height="80" rx="8" fill="#E3F8FA"/> <rect x="32" y="2" width="76" height="76" rx="6" stroke="white" stroke-width="4"/> </g> <path d="M88.1949 31.8064L79.8824 28.9801C79.6354 28.8946 79.367 28.8946 79.1176 28.9801L70.8051 31.8064C70.323 31.9703 70 32.4239 70 32.9321V39.2948C70 47.061 78.6664 50.8325 79.0369 50.9916C79.1865 51.0534 79.3433 51.0866 79.5 51.0866C79.6567 51.0866 79.8159 51.0558 79.9631 50.9916C80.3336 50.8325 89 47.0586 89 39.2924V32.9298C89 32.4239 88.677 31.9703 88.1949 31.8064V31.8064ZM84.7036 37.8104L80.3502 43.3513C80.0842 43.6909 79.69 43.907 79.2601 43.9498C79.2103 43.9545 79.1556 43.9569 79.1057 43.9569C78.7305 43.9569 78.3624 43.8239 78.075 43.5769L75.3034 41.2019C74.6384 40.6319 74.56 39.6344 75.1324 38.9694C75.7024 38.3068 76.7022 38.2284 77.3649 38.7984L78.8825 40.0975L82.217 35.8558C82.7561 35.1694 83.7512 35.0483 84.44 35.5898C85.124 36.1289 85.2451 37.124 84.7036 37.8104Z" fill="#8CE1EB"/> <path d="M76.3341 26.5884V25.75C76.3341 23.1375 74.1966 21 71.5841 21H55.75C53.1375 21 51 23.1375 51 25.75V54.25C51 56.8625 53.1375 59 55.75 59H71.5841C74.1966 59 76.3341 56.8625 76.3341 54.25V53.205C75.3366 52.6659 74.2441 51.9534 73.1682 51.0984V52.6659H54.1682V25.75C54.1682 24.8784 54.8808 24.1659 55.7524 24.1659H71.5865C72.4581 24.1659 73.1706 24.8784 73.1706 25.75V27.6666L76.3341 26.5884Z" fill="#26C6DA"/> <defs> <filter id="filter0_d_7_12501" x="0" y="0" width="140" height="153" filterUnits="userSpaceOnUse" color-interpolation-filters="sRGB"> <feFlood flood-opacity="0" result="BackgroundImageFix"/> <feColorMatrix in="SourceAlpha" type="matrix" values="0 0 0 0 0 0 0 0 0 0 0 0 0 0 0 0 0 0 127 0" result="hardAlpha"/> <feOffset dy="43"/> <feGaussianBlur stdDeviation="15"/> <feComposite in2="hardAlpha" operator="out"/> <feColorMatrix type="matrix" values="0 0 0 0 0 0 0 0 0 0.37037 0 0 0 0 0.416667 0 0 0 0.08 0"/> <feBlend mode="normal" in2="BackgroundImageFix" result="effect1_dropShadow_7_12501"/> <feBlend mode="normal" in="SourceGraphic" in2="effect1_dropShadow_7_12501" result="shape"/> </filter> </defs> </svg>